<?xml version="1.0" encoding="utf-8" standalone="no"?>
<!DOCTYPE svg PUBLIC "-//W3C//DTD SVG 1.1//EN"
  "http://www.w3.org/Graphics/SVG/1.1/DTD/svg11.dtd">
<svg xmlns:xlink="http://www.w3.org/1999/xlink" width="383.04pt" height="432pt" viewBox="0 0 383.04 432" xmlns="http://www.w3.org/2000/svg" version="1.1">
 <metadata>
  <rdf:RDF xmlns:dc="http://purl.org/dc/elements/1.1/" xmlns:cc="http://creativecommons.org/ns#" xmlns:rdf="http://www.w3.org/1999/02/22-rdf-syntax-ns#">
   <cc:Work>
    <dc:type rdf:resource="http://purl.org/dc/dcmitype/StillImage"/>
    <dc:date>2022-07-11T13:42:21.756631</dc:date>
    <dc:format>image/svg+xml</dc:format>
    <dc:creator>
     <cc:Agent>
      <dc:title>Matplotlib v3.5.2, https://matplotlib.org/</dc:title>
     </cc:Agent>
    </dc:creator>
   </cc:Work>
  </rdf:RDF>
 </metadata>
 <defs>
  <style type="text/css">*{stroke-linejoin: round; stroke-linecap: butt}</style>
 </defs>
 <g id="figure_1">
  <g id="patch_1">
   <path d="M 0 432 
L 383.04 432 
L 383.04 0 
L 0 0 
L 0 432 
z
" style="fill: none"/>
  </g>
  <g id="axes_1">
   <g id="patch_2">
    <path d="M 50.675 133.547826 
L 204.3075 133.547826 
L 204.3075 26.8 
L 50.675 26.8 
z
" style="fill: #ffffff"/>
   </g>
   <g id="matplotlib.axis_1">
    <g id="xtick_1">
     <g id="line2d_1">
      <defs>
       <path id="m238e4b4da5" d="M 0 0 
L 0 3.5 
" style="stroke: #000000; stroke-width: 0.8"/>
      </defs>
      <g>
       <use xlink:href="#m238e4b4da5" x="57.658295" y="133.547826" style="stroke: #000000; stroke-width: 0.8"/>
      </g>
     </g>
    </g>
    <g id="xtick_2">
     <g id="line2d_2">
      <g>
       <use xlink:href="#m238e4b4da5" x="100.923251" y="133.547826" style="stroke: #000000; stroke-width: 0.8"/>
      </g>
     </g>
    </g>
    <g id="xtick_3">
     <g id="line2d_3">
      <g>
       <use xlink:href="#m238e4b4da5" x="144.188206" y="133.547826" style="stroke: #000000; stroke-width: 0.8"/>
      </g>
     </g>
    </g>
    <g id="xtick_4">
     <g id="line2d_4">
      <g>
       <use xlink:href="#m238e4b4da5" x="187.453161" y="133.547826" style="stroke: #000000; stroke-width: 0.8"/>
      </g>
     </g>
    </g>
   </g>
   <g id="matplotlib.axis_2">
    <g id="ytick_1">
     <g id="line2d_5">
      <defs>
       <path id="m7c2340eade" d="M 0 0 
L -3.5 0 
" style="stroke: #000000; stroke-width: 0.8"/>
      </defs>
      <g>
       <use xlink:href="#m7c2340eade" x="50.675" y="128.695652" style="stroke: #000000; stroke-width: 0.8"/>
      </g>
     </g>
     <g id="text_1">
      <!-- 0.00 -->
      <g transform="translate(21.409375 132.494871)scale(0.1 -0.1)">
       <defs>
        <path id="DejaVuSans-30" d="M 2034 4250 
Q 1547 4250 1301 3770 
Q 1056 3291 1056 2328 
Q 1056 1369 1301 889 
Q 1547 409 2034 409 
Q 2525 409 2770 889 
Q 3016 1369 3016 2328 
Q 3016 3291 2770 3770 
Q 2525 4250 2034 4250 
z
M 2034 4750 
Q 2819 4750 3233 4129 
Q 3647 3509 3647 2328 
Q 3647 1150 3233 529 
Q 2819 -91 2034 -91 
Q 1250 -91 836 529 
Q 422 1150 422 2328 
Q 422 3509 836 4129 
Q 1250 4750 2034 4750 
z
" transform="scale(0.015625)"/>
        <path id="DejaVuSans-2e" d="M 684 794 
L 1344 794 
L 1344 0 
L 684 0 
L 684 794 
z
" transform="scale(0.015625)"/>
       </defs>
       <use xlink:href="#DejaVuSans-30"/>
       <use xlink:href="#DejaVuSans-2e" x="63.623047"/>
       <use xlink:href="#DejaVuSans-30" x="95.410156"/>
       <use xlink:href="#DejaVuSans-30" x="159.033203"/>
      </g>
     </g>
    </g>
    <g id="ytick_2">
     <g id="line2d_6">
      <g>
       <use xlink:href="#m7c2340eade" x="50.675" y="104.434783" style="stroke: #000000; stroke-width: 0.8"/>
      </g>
     </g>
     <g id="text_2">
      <!-- 0.25 -->
      <g transform="translate(21.409375 108.234001)scale(0.1 -0.1)">
       <defs>
        <path id="DejaVuSans-32" d="M 1228 531 
L 3431 531 
L 3431 0 
L 469 0 
L 469 531 
Q 828 903 1448 1529 
Q 2069 2156 2228 2338 
Q 2531 2678 2651 2914 
Q 2772 3150 2772 3378 
Q 2772 3750 2511 3984 
Q 2250 4219 1831 4219 
Q 1534 4219 1204 4116 
Q 875 4013 500 3803 
L 500 4441 
Q 881 4594 1212 4672 
Q 1544 4750 1819 4750 
Q 2544 4750 2975 4387 
Q 3406 4025 3406 3419 
Q 3406 3131 3298 2873 
Q 3191 2616 2906 2266 
Q 2828 2175 2409 1742 
Q 1991 1309 1228 531 
z
" transform="scale(0.015625)"/>
        <path id="DejaVuSans-35" d="M 691 4666 
L 3169 4666 
L 3169 4134 
L 1269 4134 
L 1269 2991 
Q 1406 3038 1543 3061 
Q 1681 3084 1819 3084 
Q 2600 3084 3056 2656 
Q 3513 2228 3513 1497 
Q 3513 744 3044 326 
Q 2575 -91 1722 -91 
Q 1428 -91 1123 -41 
Q 819 9 494 109 
L 494 744 
Q 775 591 1075 516 
Q 1375 441 1709 441 
Q 2250 441 2565 725 
Q 2881 1009 2881 1497 
Q 2881 1984 2565 2268 
Q 2250 2553 1709 2553 
Q 1456 2553 1204 2497 
Q 953 2441 691 2322 
L 691 4666 
z
" transform="scale(0.015625)"/>
       </defs>
       <use xlink:href="#DejaVuSans-30"/>
       <use xlink:href="#DejaVuSans-2e" x="63.623047"/>
       <use xlink:href="#DejaVuSans-32" x="95.410156"/>
       <use xlink:href="#DejaVuSans-35" x="159.033203"/>
      </g>
     </g>
    </g>
    <g id="ytick_3">
     <g id="line2d_7">
      <g>
       <use xlink:href="#m7c2340eade" x="50.675" y="80.173913" style="stroke: #000000; stroke-width: 0.8"/>
      </g>
     </g>
     <g id="text_3">
      <!-- 0.50 -->
      <g transform="translate(21.409375 83.973132)scale(0.1 -0.1)">
       <use xlink:href="#DejaVuSans-30"/>
       <use xlink:href="#DejaVuSans-2e" x="63.623047"/>
       <use xlink:href="#DejaVuSans-35" x="95.410156"/>
       <use xlink:href="#DejaVuSans-30" x="159.033203"/>
      </g>
     </g>
    </g>
    <g id="ytick_4">
     <g id="line2d_8">
      <g>
       <use xlink:href="#m7c2340eade" x="50.675" y="55.913043" style="stroke: #000000; stroke-width: 0.8"/>
      </g>
     </g>
     <g id="text_4">
      <!-- 0.75 -->
      <g transform="translate(21.409375 59.712262)scale(0.1 -0.1)">
       <defs>
        <path id="DejaVuSans-37" d="M 525 4666 
L 3525 4666 
L 3525 4397 
L 1831 0 
L 1172 0 
L 2766 4134 
L 525 4134 
L 525 4666 
z
" transform="scale(0.015625)"/>
       </defs>
       <use xlink:href="#DejaVuSans-30"/>
       <use xlink:href="#DejaVuSans-2e" x="63.623047"/>
       <use xlink:href="#DejaVuSans-37" x="95.410156"/>
       <use xlink:href="#DejaVuSans-35" x="159.033203"/>
      </g>
     </g>
    </g>
    <g id="ytick_5">
     <g id="line2d_9">
      <g>
       <use xlink:href="#m7c2340eade" x="50.675" y="31.652174" style="stroke: #000000; stroke-width: 0.8"/>
      </g>
     </g>
     <g id="text_5">
      <!-- 1.00 -->
      <g transform="translate(21.409375 35.451393)scale(0.1 -0.1)">
       <defs>
        <path id="DejaVuSans-31" d="M 794 531 
L 1825 531 
L 1825 4091 
L 703 3866 
L 703 4441 
L 1819 4666 
L 2450 4666 
L 2450 531 
L 3481 531 
L 3481 0 
L 794 0 
L 794 531 
z
" transform="scale(0.015625)"/>
       </defs>
       <use xlink:href="#DejaVuSans-31"/>
       <use xlink:href="#DejaVuSans-2e" x="63.623047"/>
       <use xlink:href="#DejaVuSans-30" x="95.410156"/>
       <use xlink:href="#DejaVuSans-30" x="159.033203"/>
      </g>
     </g>
    </g>
    <g id="text_6">
     <!-- state0 -->
     <g transform="translate(14.91375 99.190163)rotate(-90)scale(0.12 -0.12)">
      <defs>
       <path id="DejaVuSans-73" d="M 2834 3397 
L 2834 2853 
Q 2591 2978 2328 3040 
Q 2066 3103 1784 3103 
Q 1356 3103 1142 2972 
Q 928 2841 928 2578 
Q 928 2378 1081 2264 
Q 1234 2150 1697 2047 
L 1894 2003 
Q 2506 1872 2764 1633 
Q 3022 1394 3022 966 
Q 3022 478 2636 193 
Q 2250 -91 1575 -91 
Q 1294 -91 989 -36 
Q 684 19 347 128 
L 347 722 
Q 666 556 975 473 
Q 1284 391 1588 391 
Q 1994 391 2212 530 
Q 2431 669 2431 922 
Q 2431 1156 2273 1281 
Q 2116 1406 1581 1522 
L 1381 1569 
Q 847 1681 609 1914 
Q 372 2147 372 2553 
Q 372 3047 722 3315 
Q 1072 3584 1716 3584 
Q 2034 3584 2315 3537 
Q 2597 3491 2834 3397 
z
" transform="scale(0.015625)"/>
       <path id="DejaVuSans-74" d="M 1172 4494 
L 1172 3500 
L 2356 3500 
L 2356 3053 
L 1172 3053 
L 1172 1153 
Q 1172 725 1289 603 
Q 1406 481 1766 481 
L 2356 481 
L 2356 0 
L 1766 0 
Q 1100 0 847 248 
Q 594 497 594 1153 
L 594 3053 
L 172 3053 
L 172 3500 
L 594 3500 
L 594 4494 
L 1172 4494 
z
" transform="scale(0.015625)"/>
       <path id="DejaVuSans-61" d="M 2194 1759 
Q 1497 1759 1228 1600 
Q 959 1441 959 1056 
Q 959 750 1161 570 
Q 1363 391 1709 391 
Q 2188 391 2477 730 
Q 2766 1069 2766 1631 
L 2766 1759 
L 2194 1759 
z
M 3341 1997 
L 3341 0 
L 2766 0 
L 2766 531 
Q 2569 213 2275 61 
Q 1981 -91 1556 -91 
Q 1019 -91 701 211 
Q 384 513 384 1019 
Q 384 1609 779 1909 
Q 1175 2209 1959 2209 
L 2766 2209 
L 2766 2266 
Q 2766 2663 2505 2880 
Q 2244 3097 1772 3097 
Q 1472 3097 1187 3025 
Q 903 2953 641 2809 
L 641 3341 
Q 956 3463 1253 3523 
Q 1550 3584 1831 3584 
Q 2591 3584 2966 3190 
Q 3341 2797 3341 1997 
z
" transform="scale(0.015625)"/>
       <path id="DejaVuSans-65" d="M 3597 1894 
L 3597 1613 
L 953 1613 
Q 991 1019 1311 708 
Q 1631 397 2203 397 
Q 2534 397 2845 478 
Q 3156 559 3463 722 
L 3463 178 
Q 3153 47 2828 -22 
Q 2503 -91 2169 -91 
Q 1331 -91 842 396 
Q 353 884 353 1716 
Q 353 2575 817 3079 
Q 1281 3584 2069 3584 
Q 2775 3584 3186 3129 
Q 3597 2675 3597 1894 
z
M 3022 2063 
Q 3016 2534 2758 2815 
Q 2500 3097 2075 3097 
Q 1594 3097 1305 2825 
Q 1016 2553 972 2059 
L 3022 2063 
z
" transform="scale(0.015625)"/>
      </defs>
      <use xlink:href="#DejaVuSans-73"/>
      <use xlink:href="#DejaVuSans-74" x="52.099609"/>
      <use xlink:href="#DejaVuSans-61" x="91.308594"/>
      <use xlink:href="#DejaVuSans-74" x="152.587891"/>
      <use xlink:href="#DejaVuSans-65" x="191.796875"/>
      <use xlink:href="#DejaVuSans-30" x="253.320312"/>
     </g>
    </g>
   </g>
   <g id="line2d_10">
    <path d="M 57.658295 96.74642 
L 57.744825 96.746642 
L 57.831355 96.746865 
L 57.917885 96.747087 
L 58.004415 96.74731 
L 58.090945 96.747533 
L 58.194781 96.7478 
L 58.319384 96.748122 
L 58.468908 96.748509 
L 58.648336 96.748974 
L 58.86365 96.749533 
L 59.122027 96.750207 
L 59.432079 96.751017 
L 59.804142 96.751994 
L 60.250618 96.753171 
L 60.786388 96.754593 
L 61.429312 96.756311 
L 62.200822 96.75839 
L 63.126633 96.760911 
L 64.237607 96.763974 
L 65.570775 96.767704 
L 67.170577 96.772262 
L 69.090339 96.777851 
L 71.394053 96.784736 
L 74.158511 96.793263 
L 77.47586 96.803897 
L 81.456679 96.817263 
L 86.233662 96.834229 
L 91.966041 96.856015 
L 98.844896 96.884364 
L 107.099521 96.921751 
L 117.00507 96.971436 
L 128.891722 97.035828 
L 143.155673 97.101999 
L 160.272132 97.010224 
L 180.807757 95.245845 
L 193.116598 92.796847 
L 195.203923 92.690005 
L 196.247842 92.710861 
L 196.769843 92.755646 
L 197.03083 92.797321 
L 197.290885 92.888506 
L 197.317804 92.91887 
L 197.321678 92.926642 
L 197.323165 92.930045 
L 197.323862 92.931696 
L 197.324205 92.932515 
" clip-path="url(#p07f4296f53)" style="fill: none; stroke: #1f77b4; stroke-width: 1.5; stroke-linecap: square"/>
   </g>
   <g id="line2d_11">
    <path d="M 57.658295 96.74642 
L 57.744825 96.746723 
L 57.831355 96.747026 
L 57.917885 96.747329 
L 58.004415 96.747633 
L 58.090945 96.747937 
L 58.194781 96.748302 
L 58.319384 96.748742 
L 58.468908 96.749271 
L 58.648336 96.749907 
L 58.86365 96.750674 
L 59.122027 96.751597 
L 59.432079 96.752711 
L 59.804142 96.754056 
L 60.250618 96.755681 
L 60.786388 96.757649 
L 61.429312 96.760035 
L 62.200822 96.762935 
L 63.126633 96.766468 
L 64.237607 96.770788 
L 65.570775 96.776089 
L 67.170577 96.782627 
L 69.090339 96.790738 
L 71.394053 96.800873 
L 74.158511 96.813654 
L 77.47586 96.829958 
L 81.456679 96.851059 
L 86.233662 96.878884 
L 91.966041 96.916478 
L 98.844896 96.96894 
L 107.099521 97.045454 
L 117.00507 97.164185 
L 128.891722 97.36583 
L 143.155673 97.757502 
L 160.272132 98.664917 
L 180.807757 100.721912 
L 193.116598 100.78718 
L 195.203923 100.404694 
L 196.247842 100.170591 
L 196.769843 100.029646 
L 197.03083 99.943281 
L 197.290885 99.811032 
L 197.317804 99.777163 
L 197.321678 99.769091 
L 197.323165 99.765627 
L 197.323862 99.763961 
L 197.324205 99.763138 
" clip-path="url(#p07f4296f53)" style="fill: none; stroke: #ff7f0e; stroke-width: 1.5; stroke-linecap: square"/>
   </g>
   <g id="line2d_12">
    <path d="M 57.658295 95.550638 
L 57.744825 95.550113 
L 57.831355 95.549588 
L 57.917885 95.549062 
L 58.004415 95.548536 
L 58.090945 95.548009 
L 58.194781 95.547375 
L 58.319384 95.546614 
L 58.468908 95.545698 
L 58.648336 95.544597 
L 58.86365 95.543271 
L 59.122027 95.541674 
L 59.432079 95.53975 
L 59.804142 95.537429 
L 60.250618 95.534626 
L 60.786388 95.531237 
L 61.429312 95.527133 
L 62.200822 95.522154 
L 63.126633 95.516099 
L 64.237607 95.508717 
L 65.570775 95.499685 
L 67.170577 95.488589 
L 69.090339 95.47489 
L 71.394053 95.45787 
L 74.158511 95.436561 
L 77.47586 95.409624 
L 81.456679 95.375156 
L 86.233662 95.330366 
L 91.966041 95.270986 
L 98.844896 95.190175 
L 107.099521 95.076273 
L 117.00507 94.907857 
L 128.891722 94.64182 
L 143.155673 94.183977 
L 160.272132 93.368337 
L 180.807757 93.075721 
L 193.116598 95.459451 
L 195.203923 95.948779 
L 196.247842 96.162027 
L 196.769843 96.258186 
L 197.03083 96.302876 
L 197.290885 96.34394 
L 197.317804 96.347445 
L 197.321678 96.347746 
L 197.323165 96.347807 
L 197.323862 96.347821 
L 197.324205 96.347825 
" clip-path="url(#p07f4296f53)" style="fill: none; stroke: #2ca02c; stroke-width: 1.5; stroke-linecap: square"/>
   </g>
   <g id="patch_3">
    <path d="M 50.675 133.547826 
L 50.675 26.8 
" style="fill: none; stroke: #000000; stroke-width: 0.8; stroke-linejoin: miter; stroke-linecap: square"/>
   </g>
   <g id="patch_4">
    <path d="M 204.3075 133.547826 
L 204.3075 26.8 
" style="fill: none; stroke: #000000; stroke-width: 0.8; stroke-linejoin: miter; stroke-linecap: square"/>
   </g>
   <g id="patch_5">
    <path d="M 50.675 133.547826 
L 204.3075 133.547826 
" style="fill: none; stroke: #000000; stroke-width: 0.8; stroke-linejoin: miter; stroke-linecap: square"/>
   </g>
   <g id="patch_6">
    <path d="M 50.675 26.8 
L 204.3075 26.8 
" style="fill: none; stroke: #000000; stroke-width: 0.8; stroke-linejoin: miter; stroke-linecap: square"/>
   </g>
   <g id="text_7">
    <!-- player0 -->
    <g transform="translate(104.81125 20.8)scale(0.12 -0.12)">
     <defs>
      <path id="DejaVuSans-70" d="M 1159 525 
L 1159 -1331 
L 581 -1331 
L 581 3500 
L 1159 3500 
L 1159 2969 
Q 1341 3281 1617 3432 
Q 1894 3584 2278 3584 
Q 2916 3584 3314 3078 
Q 3713 2572 3713 1747 
Q 3713 922 3314 415 
Q 2916 -91 2278 -91 
Q 1894 -91 1617 61 
Q 1341 213 1159 525 
z
M 3116 1747 
Q 3116 2381 2855 2742 
Q 2594 3103 2138 3103 
Q 1681 3103 1420 2742 
Q 1159 2381 1159 1747 
Q 1159 1113 1420 752 
Q 1681 391 2138 391 
Q 2594 391 2855 752 
Q 3116 1113 3116 1747 
z
" transform="scale(0.015625)"/>
      <path id="DejaVuSans-6c" d="M 603 4863 
L 1178 4863 
L 1178 0 
L 603 0 
L 603 4863 
z
" transform="scale(0.015625)"/>
      <path id="DejaVuSans-79" d="M 2059 -325 
Q 1816 -950 1584 -1140 
Q 1353 -1331 966 -1331 
L 506 -1331 
L 506 -850 
L 844 -850 
Q 1081 -850 1212 -737 
Q 1344 -625 1503 -206 
L 1606 56 
L 191 3500 
L 800 3500 
L 1894 763 
L 2988 3500 
L 3597 3500 
L 2059 -325 
z
" transform="scale(0.015625)"/>
      <path id="DejaVuSans-72" d="M 2631 2963 
Q 2534 3019 2420 3045 
Q 2306 3072 2169 3072 
Q 1681 3072 1420 2755 
Q 1159 2438 1159 1844 
L 1159 0 
L 581 0 
L 581 3500 
L 1159 3500 
L 1159 2956 
Q 1341 3275 1631 3429 
Q 1922 3584 2338 3584 
Q 2397 3584 2469 3576 
Q 2541 3569 2628 3553 
L 2631 2963 
z
" transform="scale(0.015625)"/>
     </defs>
     <use xlink:href="#DejaVuSans-70"/>
     <use xlink:href="#DejaVuSans-6c" x="63.476562"/>
     <use xlink:href="#DejaVuSans-61" x="91.259766"/>
     <use xlink:href="#DejaVuSans-79" x="152.539062"/>
     <use xlink:href="#DejaVuSans-65" x="211.71875"/>
     <use xlink:href="#DejaVuSans-72" x="273.242188"/>
     <use xlink:href="#DejaVuSans-30" x="314.355469"/>
    </g>
   </g>
  </g>
  <g id="axes_2">
   <g id="patch_7">
    <path d="M 218.6075 133.547826 
L 372.24 133.547826 
L 372.24 26.8 
L 218.6075 26.8 
z
" style="fill: #ffffff"/>
   </g>
   <g id="matplotlib.axis_3">
    <g id="xtick_5">
     <g id="line2d_13">
      <g>
       <use xlink:href="#m238e4b4da5" x="225.590795" y="133.547826" style="stroke: #000000; stroke-width: 0.8"/>
      </g>
     </g>
    </g>
    <g id="xtick_6">
     <g id="line2d_14">
      <g>
       <use xlink:href="#m238e4b4da5" x="268.855751" y="133.547826" style="stroke: #000000; stroke-width: 0.8"/>
      </g>
     </g>
    </g>
    <g id="xtick_7">
     <g id="line2d_15">
      <g>
       <use xlink:href="#m238e4b4da5" x="312.120706" y="133.547826" style="stroke: #000000; stroke-width: 0.8"/>
      </g>
     </g>
    </g>
    <g id="xtick_8">
     <g id="line2d_16">
      <g>
       <use xlink:href="#m238e4b4da5" x="355.385661" y="133.547826" style="stroke: #000000; stroke-width: 0.8"/>
      </g>
     </g>
    </g>
   </g>
   <g id="matplotlib.axis_4">
    <g id="ytick_6">
     <g id="line2d_17">
      <g>
       <use xlink:href="#m7c2340eade" x="218.6075" y="128.695652" style="stroke: #000000; stroke-width: 0.8"/>
      </g>
     </g>
    </g>
    <g id="ytick_7">
     <g id="line2d_18">
      <g>
       <use xlink:href="#m7c2340eade" x="218.6075" y="104.434783" style="stroke: #000000; stroke-width: 0.8"/>
      </g>
     </g>
    </g>
    <g id="ytick_8">
     <g id="line2d_19">
      <g>
       <use xlink:href="#m7c2340eade" x="218.6075" y="80.173913" style="stroke: #000000; stroke-width: 0.8"/>
      </g>
     </g>
    </g>
    <g id="ytick_9">
     <g id="line2d_20">
      <g>
       <use xlink:href="#m7c2340eade" x="218.6075" y="55.913043" style="stroke: #000000; stroke-width: 0.8"/>
      </g>
     </g>
    </g>
    <g id="ytick_10">
     <g id="line2d_21">
      <g>
       <use xlink:href="#m7c2340eade" x="218.6075" y="31.652174" style="stroke: #000000; stroke-width: 0.8"/>
      </g>
     </g>
    </g>
   </g>
   <g id="line2d_22">
    <path d="M 225.590795 96.74642 
L 225.677325 96.746642 
L 225.763855 96.746865 
L 225.850385 96.747087 
L 225.936915 96.74731 
L 226.023445 96.747533 
L 226.127281 96.7478 
L 226.251884 96.748122 
L 226.401408 96.748509 
L 226.580836 96.748974 
L 226.79615 96.749533 
L 227.054527 96.750207 
L 227.364579 96.751017 
L 227.736642 96.751994 
L 228.183118 96.753171 
L 228.718888 96.754593 
L 229.361812 96.756311 
L 230.133322 96.75839 
L 231.059133 96.760911 
L 232.170107 96.763974 
L 233.503275 96.767704 
L 235.103077 96.772262 
L 237.022839 96.777851 
L 239.326553 96.784736 
L 242.091011 96.793263 
L 245.40836 96.803897 
L 249.389179 96.817263 
L 254.166162 96.834229 
L 259.898541 96.856015 
L 266.777396 96.884364 
L 275.032021 96.921751 
L 284.93757 96.971436 
L 296.824222 97.035828 
L 311.088173 97.101999 
L 328.204632 97.010224 
L 348.740257 95.245845 
L 361.049098 92.796847 
L 363.136423 92.690005 
L 364.180342 92.710861 
L 364.702343 92.755646 
L 364.96333 92.797321 
L 365.223385 92.888506 
L 365.250304 92.91887 
L 365.254178 92.926642 
L 365.255665 92.930045 
L 365.256362 92.931696 
L 365.256705 92.932515 
" clip-path="url(#pf4a542fbe6)" style="fill: none; stroke: #1f77b4; stroke-width: 1.5; stroke-linecap: square"/>
   </g>
   <g id="line2d_23">
    <path d="M 225.590795 96.74642 
L 225.677325 96.746723 
L 225.763855 96.747026 
L 225.850385 96.747329 
L 225.936915 96.747633 
L 226.023445 96.747937 
L 226.127281 96.748302 
L 226.251884 96.748742 
L 226.401408 96.749271 
L 226.580836 96.749907 
L 226.79615 96.750674 
L 227.054527 96.751597 
L 227.364579 96.752711 
L 227.736642 96.754056 
L 228.183118 96.755681 
L 228.718888 96.757649 
L 229.361812 96.760035 
L 230.133322 96.762935 
L 231.059133 96.766468 
L 232.170107 96.770788 
L 233.503275 96.776089 
L 235.103077 96.782627 
L 237.022839 96.790738 
L 239.326553 96.800873 
L 242.091011 96.813654 
L 245.40836 96.829958 
L 249.389179 96.851059 
L 254.166162 96.878884 
L 259.898541 96.916478 
L 266.777396 96.96894 
L 275.032021 97.045454 
L 284.93757 97.164185 
L 296.824222 97.36583 
L 311.088173 97.757502 
L 328.204632 98.664917 
L 348.740257 100.721912 
L 361.049098 100.78718 
L 363.136423 100.404694 
L 364.180342 100.170591 
L 364.702343 100.029646 
L 364.96333 99.943281 
L 365.223385 99.811032 
L 365.250304 99.777163 
L 365.254178 99.769091 
L 365.255665 99.765627 
L 365.256362 99.763961 
L 365.256705 99.763138 
" clip-path="url(#pf4a542fbe6)" style="fill: none; stroke: #ff7f0e; stroke-width: 1.5; stroke-linecap: square"/>
   </g>
   <g id="line2d_24">
    <path d="M 225.590795 95.550638 
L 225.677325 95.550113 
L 225.763855 95.549588 
L 225.850385 95.549062 
L 225.936915 95.548536 
L 226.023445 95.548009 
L 226.127281 95.547375 
L 226.251884 95.546614 
L 226.401408 95.545698 
L 226.580836 95.544597 
L 226.79615 95.543271 
L 227.054527 95.541674 
L 227.364579 95.53975 
L 227.736642 95.537429 
L 228.183118 95.534626 
L 228.718888 95.531237 
L 229.361812 95.527133 
L 230.133322 95.522154 
L 231.059133 95.516099 
L 232.170107 95.508717 
L 233.503275 95.499685 
L 235.103077 95.488589 
L 237.022839 95.47489 
L 239.326553 95.45787 
L 242.091011 95.436561 
L 245.40836 95.409624 
L 249.389179 95.375156 
L 254.166162 95.330366 
L 259.898541 95.270986 
L 266.777396 95.190175 
L 275.032021 95.076273 
L 284.93757 94.907857 
L 296.824222 94.64182 
L 311.088173 94.183977 
L 328.204632 93.368337 
L 348.740257 93.075721 
L 361.049098 95.459451 
L 363.136423 95.948779 
L 364.180342 96.162027 
L 364.702343 96.258186 
L 364.96333 96.302876 
L 365.223385 96.34394 
L 365.250304 96.347445 
L 365.254178 96.347746 
L 365.255665 96.347807 
L 365.256362 96.347821 
L 365.256705 96.347825 
" clip-path="url(#pf4a542fbe6)" style="fill: none; stroke: #2ca02c; stroke-width: 1.5; stroke-linecap: square"/>
   </g>
   <g id="patch_8">
    <path d="M 218.6075 133.547826 
L 218.6075 26.8 
" style="fill: none; stroke: #000000; stroke-width: 0.8; stroke-linejoin: miter; stroke-linecap: square"/>
   </g>
   <g id="patch_9">
    <path d="M 372.24 133.547826 
L 372.24 26.8 
" style="fill: none; stroke: #000000; stroke-width: 0.8; stroke-linejoin: miter; stroke-linecap: square"/>
   </g>
   <g id="patch_10">
    <path d="M 218.6075 133.547826 
L 372.24 133.547826 
" style="fill: none; stroke: #000000; stroke-width: 0.8; stroke-linejoin: miter; stroke-linecap: square"/>
   </g>
   <g id="patch_11">
    <path d="M 218.6075 26.8 
L 372.24 26.8 
" style="fill: none; stroke: #000000; stroke-width: 0.8; stroke-linejoin: miter; stroke-linecap: square"/>
   </g>
   <g id="text_8">
    <!-- player1 -->
    <g transform="translate(272.74375 20.8)scale(0.12 -0.12)">
     <use xlink:href="#DejaVuSans-70"/>
     <use xlink:href="#DejaVuSans-6c" x="63.476562"/>
     <use xlink:href="#DejaVuSans-61" x="91.259766"/>
     <use xlink:href="#DejaVuSans-79" x="152.539062"/>
     <use xlink:href="#DejaVuSans-65" x="211.71875"/>
     <use xlink:href="#DejaVuSans-72" x="273.242188"/>
     <use xlink:href="#DejaVuSans-31" x="314.355469"/>
    </g>
   </g>
  </g>
  <g id="axes_3">
   <g id="patch_12">
    <path d="M 50.675 253.973913 
L 204.3075 253.973913 
L 204.3075 147.226087 
L 50.675 147.226087 
z
" style="fill: #ffffff"/>
   </g>
   <g id="matplotlib.axis_5">
    <g id="xtick_9">
     <g id="line2d_25">
      <g>
       <use xlink:href="#m238e4b4da5" x="57.658295" y="253.973913" style="stroke: #000000; stroke-width: 0.8"/>
      </g>
     </g>
    </g>
    <g id="xtick_10">
     <g id="line2d_26">
      <g>
       <use xlink:href="#m238e4b4da5" x="100.923251" y="253.973913" style="stroke: #000000; stroke-width: 0.8"/>
      </g>
     </g>
    </g>
    <g id="xtick_11">
     <g id="line2d_27">
      <g>
       <use xlink:href="#m238e4b4da5" x="144.188206" y="253.973913" style="stroke: #000000; stroke-width: 0.8"/>
      </g>
     </g>
    </g>
    <g id="xtick_12">
     <g id="line2d_28">
      <g>
       <use xlink:href="#m238e4b4da5" x="187.453161" y="253.973913" style="stroke: #000000; stroke-width: 0.8"/>
      </g>
     </g>
    </g>
   </g>
   <g id="matplotlib.axis_6">
    <g id="ytick_11">
     <g id="line2d_29">
      <g>
       <use xlink:href="#m7c2340eade" x="50.675" y="249.121739" style="stroke: #000000; stroke-width: 0.8"/>
      </g>
     </g>
     <g id="text_9">
      <!-- 0.00 -->
      <g transform="translate(21.409375 252.920958)scale(0.1 -0.1)">
       <use xlink:href="#DejaVuSans-30"/>
       <use xlink:href="#DejaVuSans-2e" x="63.623047"/>
       <use xlink:href="#DejaVuSans-30" x="95.410156"/>
       <use xlink:href="#DejaVuSans-30" x="159.033203"/>
      </g>
     </g>
    </g>
    <g id="ytick_12">
     <g id="line2d_30">
      <g>
       <use xlink:href="#m7c2340eade" x="50.675" y="224.86087" style="stroke: #000000; stroke-width: 0.8"/>
      </g>
     </g>
     <g id="text_10">
      <!-- 0.25 -->
      <g transform="translate(21.409375 228.660088)scale(0.1 -0.1)">
       <use xlink:href="#DejaVuSans-30"/>
       <use xlink:href="#DejaVuSans-2e" x="63.623047"/>
       <use xlink:href="#DejaVuSans-32" x="95.410156"/>
       <use xlink:href="#DejaVuSans-35" x="159.033203"/>
      </g>
     </g>
    </g>
    <g id="ytick_13">
     <g id="line2d_31">
      <g>
       <use xlink:href="#m7c2340eade" x="50.675" y="200.6" style="stroke: #000000; stroke-width: 0.8"/>
      </g>
     </g>
     <g id="text_11">
      <!-- 0.50 -->
      <g transform="translate(21.409375 204.399219)scale(0.1 -0.1)">
       <use xlink:href="#DejaVuSans-30"/>
       <use xlink:href="#DejaVuSans-2e" x="63.623047"/>
       <use xlink:href="#DejaVuSans-35" x="95.410156"/>
       <use xlink:href="#DejaVuSans-30" x="159.033203"/>
      </g>
     </g>
    </g>
    <g id="ytick_14">
     <g id="line2d_32">
      <g>
       <use xlink:href="#m7c2340eade" x="50.675" y="176.33913" style="stroke: #000000; stroke-width: 0.8"/>
      </g>
     </g>
     <g id="text_12">
      <!-- 0.75 -->
      <g transform="translate(21.409375 180.138349)scale(0.1 -0.1)">
       <use xlink:href="#DejaVuSans-30"/>
       <use xlink:href="#DejaVuSans-2e" x="63.623047"/>
       <use xlink:href="#DejaVuSans-37" x="95.410156"/>
       <use xlink:href="#DejaVuSans-35" x="159.033203"/>
      </g>
     </g>
    </g>
    <g id="ytick_15">
     <g id="line2d_33">
      <g>
       <use xlink:href="#m7c2340eade" x="50.675" y="152.078261" style="stroke: #000000; stroke-width: 0.8"/>
      </g>
     </g>
     <g id="text_13">
      <!-- 1.00 -->
      <g transform="translate(21.409375 155.87748)scale(0.1 -0.1)">
       <use xlink:href="#DejaVuSans-31"/>
       <use xlink:href="#DejaVuSans-2e" x="63.623047"/>
       <use xlink:href="#DejaVuSans-30" x="95.410156"/>
       <use xlink:href="#DejaVuSans-30" x="159.033203"/>
      </g>
     </g>
    </g>
    <g id="text_14">
     <!-- state1 -->
     <g transform="translate(14.91375 219.61625)rotate(-90)scale(0.12 -0.12)">
      <use xlink:href="#DejaVuSans-73"/>
      <use xlink:href="#DejaVuSans-74" x="52.099609"/>
      <use xlink:href="#DejaVuSans-61" x="91.308594"/>
      <use xlink:href="#DejaVuSans-74" x="152.587891"/>
      <use xlink:href="#DejaVuSans-65" x="191.796875"/>
      <use xlink:href="#DejaVuSans-31" x="253.320312"/>
     </g>
    </g>
   </g>
   <g id="line2d_34">
    <path d="M 57.658295 218.439363 
L 57.744825 218.440504 
L 57.831355 218.441646 
L 57.917885 218.44279 
L 58.004415 218.443935 
L 58.090945 218.445082 
L 58.194781 218.44646 
L 58.319384 218.448117 
L 58.468908 218.450109 
L 58.648336 218.452507 
L 58.86365 218.455392 
L 59.122027 218.458868 
L 59.432079 218.463057 
L 59.804142 218.468111 
L 60.250618 218.474216 
L 60.786388 218.481599 
L 61.429312 218.490542 
L 62.200822 218.501395 
L 63.126633 218.514599 
L 64.237607 218.530708 
L 65.570775 218.550428 
L 67.170577 218.574673 
L 69.090339 218.604636 
L 71.394053 218.641905 
L 74.158511 218.688632 
L 77.47586 218.7478 
L 81.456679 218.823669 
L 86.233662 218.922514 
L 91.966041 219.053967 
L 98.844896 219.233554 
L 107.099521 219.487867 
L 117.00507 219.866026 
L 128.891722 220.467531 
L 143.155673 221.51462 
L 160.272132 223.506339 
L 180.807757 227.644111 
L 193.116598 229.0624 
L 195.203923 227.124342 
L 196.247842 225.818993 
L 196.769843 225.107811 
L 197.03083 224.727222 
L 197.290885 224.263699 
L 197.317804 224.175673 
L 197.321678 224.156982 
L 197.323165 224.149248 
L 197.323862 224.145594 
L 197.324205 224.143802 
" clip-path="url(#pafe7e3f081)" style="fill: none; stroke: #1f77b4; stroke-width: 1.5; stroke-linecap: square"/>
   </g>
   <g id="line2d_35">
    <path d="M 57.658295 218.439363 
L 57.744825 218.440358 
L 57.831355 218.441354 
L 57.917885 218.442351 
L 58.004415 218.44335 
L 58.090945 218.444349 
L 58.194781 218.44555 
L 58.319384 218.446993 
L 58.468908 218.448728 
L 58.648336 218.450815 
L 58.86365 218.453326 
L 59.122027 218.456348 
L 59.432079 218.459989 
L 59.804142 218.464378 
L 60.250618 218.469674 
L 60.786388 218.476072 
L 61.429312 218.483811 
L 62.200822 218.493188 
L 63.126633 218.504571 
L 64.237607 218.518424 
L 65.570775 218.535331 
L 67.170577 218.55604 
L 69.090339 218.581516 
L 71.394053 218.613022 
L 74.158511 218.652243 
L 77.47586 218.701464 
L 81.456679 218.763861 
L 86.233662 218.843961 
L 91.966041 218.94843 
L 98.844896 219.087435 
L 107.099521 219.277095 
L 117.00507 219.543838 
L 128.891722 219.930389 
L 143.155673 220.48222 
L 160.272132 220.883688 
L 180.807757 215.365232 
L 193.116598 208.212614 
L 195.203923 208.364645 
L 196.247842 208.673975 
L 196.769843 208.901184 
L 197.03083 209.0522 
L 197.290885 209.304025 
L 197.317804 209.374098 
L 197.321678 209.391254 
L 197.323165 209.398676 
L 197.323862 209.402257 
L 197.324205 209.40403 
" clip-path="url(#pafe7e3f081)" style="fill: none; stroke: #ff7f0e; stroke-width: 1.5; stroke-linecap: square"/>
   </g>
   <g id="line2d_36">
    <path d="M 57.658295 213.443013 
L 57.744825 213.440877 
L 57.831355 213.438739 
L 57.917885 213.436598 
L 58.004415 213.434454 
L 58.090945 213.432308 
L 58.194781 213.429729 
L 58.319384 213.426629 
L 58.468908 213.422901 
L 58.648336 213.418417 
L 58.86365 213.413021 
L 59.122027 213.406523 
L 59.432079 213.398693 
L 59.804142 213.38925 
L 60.250618 213.377849 
L 60.786388 213.364068 
L 61.429312 213.347387 
L 62.200822 213.327156 
L 63.126633 213.302569 
L 64.237607 213.272608 
L 65.570775 213.23598 
L 67.170577 213.191026 
L 69.090339 213.135587 
L 71.394053 213.066811 
L 74.158511 212.980864 
L 77.47586 212.872474 
L 81.456679 212.734209 
L 86.233662 212.555264 
L 91.966041 212.319342 
L 98.844896 212.00075 
L 107.099521 211.556777 
L 117.00507 210.911875 
L 128.891722 209.923819 
L 143.155673 208.324899 
L 160.272132 205.931713 
L 180.807757 207.312395 
L 193.116598 213.046725 
L 195.203923 214.832752 
L 196.247842 215.828771 
L 196.769843 216.312744 
L 197.03083 216.542317 
L 197.290885 216.754015 
L 197.317804 216.771968 
L 197.321678 216.773503 
L 197.323165 216.773815 
L 197.323862 216.773889 
L 197.324205 216.773907 
" clip-path="url(#pafe7e3f081)" style="fill: none; stroke: #2ca02c; stroke-width: 1.5; stroke-linecap: square"/>
   </g>
   <g id="patch_13">
    <path d="M 50.675 253.973913 
L 50.675 147.226087 
" style="fill: none; stroke: #000000; stroke-width: 0.8; stroke-linejoin: miter; stroke-linecap: square"/>
   </g>
   <g id="patch_14">
    <path d="M 204.3075 253.973913 
L 204.3075 147.226087 
" style="fill: none; stroke: #000000; stroke-width: 0.8; stroke-linejoin: miter; stroke-linecap: square"/>
   </g>
   <g id="patch_15">
    <path d="M 50.675 253.973913 
L 204.3075 253.973913 
" style="fill: none; stroke: #000000; stroke-width: 0.8; stroke-linejoin: miter; stroke-linecap: square"/>
   </g>
   <g id="patch_16">
    <path d="M 50.675 147.226087 
L 204.3075 147.226087 
" style="fill: none; stroke: #000000; stroke-width: 0.8; stroke-linejoin: miter; stroke-linecap: square"/>
   </g>
  </g>
  <g id="axes_4">
   <g id="patch_17">
    <path d="M 218.6075 253.973913 
L 372.24 253.973913 
L 372.24 147.226087 
L 218.6075 147.226087 
z
" style="fill: #ffffff"/>
   </g>
   <g id="matplotlib.axis_7">
    <g id="xtick_13">
     <g id="line2d_37">
      <g>
       <use xlink:href="#m238e4b4da5" x="225.590795" y="253.973913" style="stroke: #000000; stroke-width: 0.8"/>
      </g>
     </g>
    </g>
    <g id="xtick_14">
     <g id="line2d_38">
      <g>
       <use xlink:href="#m238e4b4da5" x="268.855751" y="253.973913" style="stroke: #000000; stroke-width: 0.8"/>
      </g>
     </g>
    </g>
    <g id="xtick_15">
     <g id="line2d_39">
      <g>
       <use xlink:href="#m238e4b4da5" x="312.120706" y="253.973913" style="stroke: #000000; stroke-width: 0.8"/>
      </g>
     </g>
    </g>
    <g id="xtick_16">
     <g id="line2d_40">
      <g>
       <use xlink:href="#m238e4b4da5" x="355.385661" y="253.973913" style="stroke: #000000; stroke-width: 0.8"/>
      </g>
     </g>
    </g>
   </g>
   <g id="matplotlib.axis_8">
    <g id="ytick_16">
     <g id="line2d_41">
      <g>
       <use xlink:href="#m7c2340eade" x="218.6075" y="249.121739" style="stroke: #000000; stroke-width: 0.8"/>
      </g>
     </g>
    </g>
    <g id="ytick_17">
     <g id="line2d_42">
      <g>
       <use xlink:href="#m7c2340eade" x="218.6075" y="224.86087" style="stroke: #000000; stroke-width: 0.8"/>
      </g>
     </g>
    </g>
    <g id="ytick_18">
     <g id="line2d_43">
      <g>
       <use xlink:href="#m7c2340eade" x="218.6075" y="200.6" style="stroke: #000000; stroke-width: 0.8"/>
      </g>
     </g>
    </g>
    <g id="ytick_19">
     <g id="line2d_44">
      <g>
       <use xlink:href="#m7c2340eade" x="218.6075" y="176.33913" style="stroke: #000000; stroke-width: 0.8"/>
      </g>
     </g>
    </g>
    <g id="ytick_20">
     <g id="line2d_45">
      <g>
       <use xlink:href="#m7c2340eade" x="218.6075" y="152.078261" style="stroke: #000000; stroke-width: 0.8"/>
      </g>
     </g>
    </g>
   </g>
   <g id="line2d_46">
    <path d="M 225.590795 215.990136 
L 225.677325 215.989457 
L 225.763855 215.988778 
L 225.850385 215.988097 
L 225.936915 215.987415 
L 226.023445 215.986732 
L 226.127281 215.98591 
L 226.251884 215.984922 
L 226.401408 215.983734 
L 226.580836 215.982302 
L 226.79615 215.980578 
L 227.054527 215.9785 
L 227.364579 215.975991 
L 227.736642 215.97296 
L 228.183118 215.969292 
L 228.718888 215.964847 
L 229.361812 215.959449 
L 230.133322 215.952877 
L 231.059133 215.944852 
L 232.170107 215.935017 
L 233.503275 215.922909 
L 235.103077 215.90792 
L 237.022839 215.88924 
L 239.326553 215.865763 
L 242.091011 215.835948 
L 245.40836 215.797581 
L 249.389179 215.747375 
L 254.166162 215.680245 
L 259.898541 215.587913 
L 266.777396 215.456027 
L 275.032021 215.257614 
L 284.93757 214.936296 
L 296.824222 214.355992 
L 311.088173 213.116242 
L 328.204632 209.739462 
L 348.740257 201.367835 
L 361.049098 200.154805 
L 363.136423 200.714963 
L 364.180342 201.245471 
L 364.702343 201.639536 
L 364.96333 201.911248 
L 365.223385 202.381747 
L 365.250304 202.515824 
L 365.254178 202.548808 
L 365.255665 202.563096 
L 365.256362 202.569991 
L 365.256705 202.573407 
" clip-path="url(#pdee2602bb4)" style="fill: none; stroke: #1f77b4; stroke-width: 1.5; stroke-linecap: square"/>
   </g>
   <g id="line2d_47">
    <path d="M 225.590795 215.990136 
L 225.677325 215.989819 
L 225.763855 215.989501 
L 225.850385 215.989184 
L 225.936915 215.988866 
L 226.023445 215.988548 
L 226.127281 215.988167 
L 226.251884 215.987709 
L 226.401408 215.987159 
L 226.580836 215.986498 
L 226.79615 215.985705 
L 227.054527 215.984753 
L 227.364579 215.983608 
L 227.736642 215.982233 
L 228.183118 215.98058 
L 228.718888 215.978593 
L 229.361812 215.976204 
L 230.133322 215.97333 
L 231.059133 215.969871 
L 232.170107 215.965707 
L 233.503275 215.960694 
L 235.103077 215.954658 
L 237.022839 215.94739 
L 239.326553 215.938646 
L 242.091011 215.928146 
L 245.40836 215.915585 
L 249.389179 215.900677 
L 254.166162 215.883262 
L 259.898541 215.863597 
L 266.777396 215.843129 
L 275.032021 215.826662 
L 284.93757 215.829069 
L 296.824222 215.898948 
L 311.088173 216.218432 
L 328.204632 217.596036 
L 348.740257 222.710707 
L 361.049098 230.562856 
L 363.136423 231.730371 
L 364.180342 231.837301 
L 364.702343 231.695253 
L 364.96333 231.532462 
L 365.223385 231.157304 
L 365.250304 231.031143 
L 365.254178 230.998836 
L 365.255665 230.984687 
L 365.256362 230.977824 
L 365.256705 230.974417 
" clip-path="url(#pdee2602bb4)" style="fill: none; stroke: #ff7f0e; stroke-width: 1.5; stroke-linecap: square"/>
   </g>
   <g id="line2d_48">
    <path d="M 225.590795 218.341467 
L 225.677325 218.342463 
L 225.763855 218.34346 
L 225.850385 218.344459 
L 225.936915 218.345458 
L 226.023445 218.346459 
L 226.127281 218.347662 
L 226.251884 218.349108 
L 226.401408 218.350847 
L 226.580836 218.352938 
L 226.79615 218.355456 
L 227.054527 218.358487 
L 227.364579 218.36214 
L 227.736642 218.366546 
L 228.183118 218.371867 
L 228.718888 218.378298 
L 229.361812 218.386086 
L 230.133322 218.395532 
L 231.059133 218.407016 
L 232.170107 218.421015 
L 233.503275 218.438136 
L 235.103077 218.459161 
L 237.022839 218.485109 
L 239.326553 218.51733 
L 242.091011 218.557645 
L 245.40836 218.608573 
L 249.389179 218.673687 
L 254.166162 218.758232 
L 259.898541 218.870229 
L 266.777396 219.022583 
L 275.032021 219.237463 
L 284.93757 219.556374 
L 296.824222 220.066799 
L 311.088173 220.987065 
L 328.204632 222.986241 
L 348.740257 226.243197 
L 361.049098 219.604081 
L 363.136423 217.876405 
L 364.180342 217.238967 
L 364.702343 216.98695 
L 364.96333 216.878029 
L 365.223385 216.782688 
L 365.250304 216.774772 
L 365.254178 216.774094 
L 365.255665 216.773957 
L 365.256362 216.773924 
L 365.256705 216.773916 
" clip-path="url(#pdee2602bb4)" style="fill: none; stroke: #2ca02c; stroke-width: 1.5; stroke-linecap: square"/>
   </g>
   <g id="patch_18">
    <path d="M 218.6075 253.973913 
L 218.6075 147.226087 
" style="fill: none; stroke: #000000; stroke-width: 0.8; stroke-linejoin: miter; stroke-linecap: square"/>
   </g>
   <g id="patch_19">
    <path d="M 372.24 253.973913 
L 372.24 147.226087 
" style="fill: none; stroke: #000000; stroke-width: 0.8; stroke-linejoin: miter; stroke-linecap: square"/>
   </g>
   <g id="patch_20">
    <path d="M 218.6075 253.973913 
L 372.24 253.973913 
" style="fill: none; stroke: #000000; stroke-width: 0.8; stroke-linejoin: miter; stroke-linecap: square"/>
   </g>
   <g id="patch_21">
    <path d="M 218.6075 147.226087 
L 372.24 147.226087 
" style="fill: none; stroke: #000000; stroke-width: 0.8; stroke-linejoin: miter; stroke-linecap: square"/>
   </g>
  </g>
  <g id="axes_5">
   <g id="patch_22">
    <path d="M 50.675 374.4 
L 204.3075 374.4 
L 204.3075 267.652174 
L 50.675 267.652174 
z
" style="fill: #ffffff"/>
   </g>
   <g id="matplotlib.axis_9">
    <g id="xtick_17">
     <g id="line2d_49">
      <g>
       <use xlink:href="#m238e4b4da5" x="57.658295" y="374.4" style="stroke: #000000; stroke-width: 0.8"/>
      </g>
     </g>
     <g id="text_15">
      <!-- 0 -->
      <g transform="translate(54.477045 388.998438)scale(0.1 -0.1)">
       <use xlink:href="#DejaVuSans-30"/>
      </g>
     </g>
    </g>
    <g id="xtick_18">
     <g id="line2d_50">
      <g>
       <use xlink:href="#m238e4b4da5" x="100.923251" y="374.4" style="stroke: #000000; stroke-width: 0.8"/>
      </g>
     </g>
     <g id="text_16">
      <!-- 50 -->
      <g transform="translate(94.560751 388.998438)scale(0.1 -0.1)">
       <use xlink:href="#DejaVuSans-35"/>
       <use xlink:href="#DejaVuSans-30" x="63.623047"/>
      </g>
     </g>
    </g>
    <g id="xtick_19">
     <g id="line2d_51">
      <g>
       <use xlink:href="#m238e4b4da5" x="144.188206" y="374.4" style="stroke: #000000; stroke-width: 0.8"/>
      </g>
     </g>
     <g id="text_17">
      <!-- 100 -->
      <g transform="translate(134.644456 388.998438)scale(0.1 -0.1)">
       <use xlink:href="#DejaVuSans-31"/>
       <use xlink:href="#DejaVuSans-30" x="63.623047"/>
       <use xlink:href="#DejaVuSans-30" x="127.246094"/>
      </g>
     </g>
    </g>
    <g id="xtick_20">
     <g id="line2d_52">
      <g>
       <use xlink:href="#m238e4b4da5" x="187.453161" y="374.4" style="stroke: #000000; stroke-width: 0.8"/>
      </g>
     </g>
     <g id="text_18">
      <!-- 150 -->
      <g transform="translate(177.909411 388.998438)scale(0.1 -0.1)">
       <use xlink:href="#DejaVuSans-31"/>
       <use xlink:href="#DejaVuSans-35" x="63.623047"/>
       <use xlink:href="#DejaVuSans-30" x="127.246094"/>
      </g>
     </g>
    </g>
    <g id="text_19">
     <!-- path length s -->
     <g transform="translate(94.40375 402.676563)scale(0.1 -0.1)">
      <defs>
       <path id="DejaVuSans-68" d="M 3513 2113 
L 3513 0 
L 2938 0 
L 2938 2094 
Q 2938 2591 2744 2837 
Q 2550 3084 2163 3084 
Q 1697 3084 1428 2787 
Q 1159 2491 1159 1978 
L 1159 0 
L 581 0 
L 581 4863 
L 1159 4863 
L 1159 2956 
Q 1366 3272 1645 3428 
Q 1925 3584 2291 3584 
Q 2894 3584 3203 3211 
Q 3513 2838 3513 2113 
z
" transform="scale(0.015625)"/>
       <path id="DejaVuSans-20" transform="scale(0.015625)"/>
       <path id="DejaVuSans-6e" d="M 3513 2113 
L 3513 0 
L 2938 0 
L 2938 2094 
Q 2938 2591 2744 2837 
Q 2550 3084 2163 3084 
Q 1697 3084 1428 2787 
Q 1159 2491 1159 1978 
L 1159 0 
L 581 0 
L 581 3500 
L 1159 3500 
L 1159 2956 
Q 1366 3272 1645 3428 
Q 1925 3584 2291 3584 
Q 2894 3584 3203 3211 
Q 3513 2838 3513 2113 
z
" transform="scale(0.015625)"/>
       <path id="DejaVuSans-67" d="M 2906 1791 
Q 2906 2416 2648 2759 
Q 2391 3103 1925 3103 
Q 1463 3103 1205 2759 
Q 947 2416 947 1791 
Q 947 1169 1205 825 
Q 1463 481 1925 481 
Q 2391 481 2648 825 
Q 2906 1169 2906 1791 
z
M 3481 434 
Q 3481 -459 3084 -895 
Q 2688 -1331 1869 -1331 
Q 1566 -1331 1297 -1286 
Q 1028 -1241 775 -1147 
L 775 -588 
Q 1028 -725 1275 -790 
Q 1522 -856 1778 -856 
Q 2344 -856 2625 -561 
Q 2906 -266 2906 331 
L 2906 616 
Q 2728 306 2450 153 
Q 2172 0 1784 0 
Q 1141 0 747 490 
Q 353 981 353 1791 
Q 353 2603 747 3093 
Q 1141 3584 1784 3584 
Q 2172 3584 2450 3431 
Q 2728 3278 2906 2969 
L 2906 3500 
L 3481 3500 
L 3481 434 
z
" transform="scale(0.015625)"/>
      </defs>
      <use xlink:href="#DejaVuSans-70"/>
      <use xlink:href="#DejaVuSans-61" x="63.476562"/>
      <use xlink:href="#DejaVuSans-74" x="124.755859"/>
      <use xlink:href="#DejaVuSans-68" x="163.964844"/>
      <use xlink:href="#DejaVuSans-20" x="227.34375"/>
      <use xlink:href="#DejaVuSans-6c" x="259.130859"/>
      <use xlink:href="#DejaVuSans-65" x="286.914062"/>
      <use xlink:href="#DejaVuSans-6e" x="348.4375"/>
      <use xlink:href="#DejaVuSans-67" x="411.816406"/>
      <use xlink:href="#DejaVuSans-74" x="475.292969"/>
      <use xlink:href="#DejaVuSans-68" x="514.501953"/>
      <use xlink:href="#DejaVuSans-20" x="577.880859"/>
      <use xlink:href="#DejaVuSans-73" x="609.667969"/>
     </g>
    </g>
   </g>
   <g id="matplotlib.axis_10">
    <g id="ytick_21">
     <g id="line2d_53">
      <g>
       <use xlink:href="#m7c2340eade" x="50.675" y="369.547826" style="stroke: #000000; stroke-width: 0.8"/>
      </g>
     </g>
     <g id="text_20">
      <!-- 0.00 -->
      <g transform="translate(21.409375 373.347045)scale(0.1 -0.1)">
       <use xlink:href="#DejaVuSans-30"/>
       <use xlink:href="#DejaVuSans-2e" x="63.623047"/>
       <use xlink:href="#DejaVuSans-30" x="95.410156"/>
       <use xlink:href="#DejaVuSans-30" x="159.033203"/>
      </g>
     </g>
    </g>
    <g id="ytick_22">
     <g id="line2d_54">
      <g>
       <use xlink:href="#m7c2340eade" x="50.675" y="345.286957" style="stroke: #000000; stroke-width: 0.8"/>
      </g>
     </g>
     <g id="text_21">
      <!-- 0.25 -->
      <g transform="translate(21.409375 349.086175)scale(0.1 -0.1)">
       <use xlink:href="#DejaVuSans-30"/>
       <use xlink:href="#DejaVuSans-2e" x="63.623047"/>
       <use xlink:href="#DejaVuSans-32" x="95.410156"/>
       <use xlink:href="#DejaVuSans-35" x="159.033203"/>
      </g>
     </g>
    </g>
    <g id="ytick_23">
     <g id="line2d_55">
      <g>
       <use xlink:href="#m7c2340eade" x="50.675" y="321.026087" style="stroke: #000000; stroke-width: 0.8"/>
      </g>
     </g>
     <g id="text_22">
      <!-- 0.50 -->
      <g transform="translate(21.409375 324.825306)scale(0.1 -0.1)">
       <use xlink:href="#DejaVuSans-30"/>
       <use xlink:href="#DejaVuSans-2e" x="63.623047"/>
       <use xlink:href="#DejaVuSans-35" x="95.410156"/>
       <use xlink:href="#DejaVuSans-30" x="159.033203"/>
      </g>
     </g>
    </g>
    <g id="ytick_24">
     <g id="line2d_56">
      <g>
       <use xlink:href="#m7c2340eade" x="50.675" y="296.765217" style="stroke: #000000; stroke-width: 0.8"/>
      </g>
     </g>
     <g id="text_23">
      <!-- 0.75 -->
      <g transform="translate(21.409375 300.564436)scale(0.1 -0.1)">
       <use xlink:href="#DejaVuSans-30"/>
       <use xlink:href="#DejaVuSans-2e" x="63.623047"/>
       <use xlink:href="#DejaVuSans-37" x="95.410156"/>
       <use xlink:href="#DejaVuSans-35" x="159.033203"/>
      </g>
     </g>
    </g>
    <g id="ytick_25">
     <g id="line2d_57">
      <g>
       <use xlink:href="#m7c2340eade" x="50.675" y="272.504348" style="stroke: #000000; stroke-width: 0.8"/>
      </g>
     </g>
     <g id="text_24">
      <!-- 1.00 -->
      <g transform="translate(21.409375 276.303567)scale(0.1 -0.1)">
       <use xlink:href="#DejaVuSans-31"/>
       <use xlink:href="#DejaVuSans-2e" x="63.623047"/>
       <use xlink:href="#DejaVuSans-30" x="95.410156"/>
       <use xlink:href="#DejaVuSans-30" x="159.033203"/>
      </g>
     </g>
    </g>
    <g id="text_25">
     <!-- state2 -->
     <g transform="translate(14.91375 340.042337)rotate(-90)scale(0.12 -0.12)">
      <use xlink:href="#DejaVuSans-73"/>
      <use xlink:href="#DejaVuSans-74" x="52.099609"/>
      <use xlink:href="#DejaVuSans-61" x="91.308594"/>
      <use xlink:href="#DejaVuSans-74" x="152.587891"/>
      <use xlink:href="#DejaVuSans-65" x="191.796875"/>
      <use xlink:href="#DejaVuSans-32" x="253.320312"/>
     </g>
    </g>
   </g>
   <g id="line2d_58">
    <path d="M 57.658295 336.416223 
L 57.744825 336.415544 
L 57.831355 336.414865 
L 57.917885 336.414184 
L 58.004415 336.413502 
L 58.090945 336.412819 
L 58.194781 336.411997 
L 58.319384 336.411009 
L 58.468908 336.409821 
L 58.648336 336.408389 
L 58.86365 336.406665 
L 59.122027 336.404587 
L 59.432079 336.402078 
L 59.804142 336.399047 
L 60.250618 336.395379 
L 60.786388 336.390934 
L 61.429312 336.385536 
L 62.200822 336.378964 
L 63.126633 336.370939 
L 64.237607 336.361104 
L 65.570775 336.348996 
L 67.170577 336.334007 
L 69.090339 336.315327 
L 71.394053 336.29185 
L 74.158511 336.262035 
L 77.47586 336.223668 
L 81.456679 336.173462 
L 86.233662 336.106332 
L 91.966041 336.014 
L 98.844896 335.882114 
L 107.099521 335.683701 
L 117.00507 335.362383 
L 128.891722 334.782079 
L 143.155673 333.542329 
L 160.272132 330.165549 
L 180.807757 321.793922 
L 193.116598 320.580892 
L 195.203923 321.14105 
L 196.247842 321.671558 
L 196.769843 322.065623 
L 197.03083 322.337335 
L 197.290885 322.807834 
L 197.317804 322.941911 
L 197.321678 322.974895 
L 197.323165 322.989183 
L 197.323862 322.996078 
L 197.324205 322.999494 
" clip-path="url(#p81d48df0b9)" style="fill: none; stroke: #1f77b4; stroke-width: 1.5; stroke-linecap: square"/>
   </g>
   <g id="line2d_59">
    <path d="M 57.658295 336.416223 
L 57.744825 336.415906 
L 57.831355 336.415588 
L 57.917885 336.415271 
L 58.004415 336.414953 
L 58.090945 336.414635 
L 58.194781 336.414254 
L 58.319384 336.413796 
L 58.468908 336.413246 
L 58.648336 336.412585 
L 58.86365 336.411792 
L 59.122027 336.41084 
L 59.432079 336.409695 
L 59.804142 336.40832 
L 60.250618 336.406667 
L 60.786388 336.40468 
L 61.429312 336.402291 
L 62.200822 336.399417 
L 63.126633 336.395958 
L 64.237607 336.391794 
L 65.570775 336.386781 
L 67.170577 336.380745 
L 69.090339 336.373477 
L 71.394053 336.364733 
L 74.158511 336.354233 
L 77.47586 336.341672 
L 81.456679 336.326764 
L 86.233662 336.309349 
L 91.966041 336.289684 
L 98.844896 336.269216 
L 107.099521 336.252749 
L 117.00507 336.255156 
L 128.891722 336.325035 
L 143.155673 336.644519 
L 160.272132 338.022123 
L 180.807757 343.136794 
L 193.116598 350.988942 
L 195.203923 352.156458 
L 196.247842 352.263388 
L 196.769843 352.12134 
L 197.03083 351.958549 
L 197.290885 351.583391 
L 197.317804 351.45723 
L 197.321678 351.424923 
L 197.323165 351.410774 
L 197.323862 351.403911 
L 197.324205 351.400504 
" clip-path="url(#p81d48df0b9)" style="fill: none; stroke: #ff7f0e; stroke-width: 1.5; stroke-linecap: square"/>
   </g>
   <g id="line2d_60">
    <path d="M 57.658295 338.767554 
L 57.744825 338.76855 
L 57.831355 338.769547 
L 57.917885 338.770546 
L 58.004415 338.771545 
L 58.090945 338.772546 
L 58.194781 338.773749 
L 58.319384 338.775195 
L 58.468908 338.776934 
L 58.648336 338.779025 
L 58.86365 338.781543 
L 59.122027 338.784574 
L 59.432079 338.788227 
L 59.804142 338.792633 
L 60.250618 338.797954 
L 60.786388 338.804385 
L 61.429312 338.812173 
L 62.200822 338.821619 
L 63.126633 338.833103 
L 64.237607 338.847102 
L 65.570775 338.864223 
L 67.170577 338.885248 
L 69.090339 338.911196 
L 71.394053 338.943417 
L 74.158511 338.983732 
L 77.47586 339.03466 
L 81.456679 339.099774 
L 86.233662 339.184319 
L 91.966041 339.296316 
L 98.844896 339.44867 
L 107.099521 339.66355 
L 117.00507 339.982461 
L 128.891722 340.492886 
L 143.155673 341.413152 
L 160.272132 343.412328 
L 180.807757 346.669284 
L 193.116598 340.030168 
L 195.203923 338.302492 
L 196.247842 337.665054 
L 196.769843 337.413037 
L 197.03083 337.304116 
L 197.290885 337.208775 
L 197.317804 337.200859 
L 197.321678 337.200181 
L 197.323165 337.200043 
L 197.323862 337.200011 
L 197.324205 337.200003 
" clip-path="url(#p81d48df0b9)" style="fill: none; stroke: #2ca02c; stroke-width: 1.5; stroke-linecap: square"/>
   </g>
   <g id="patch_23">
    <path d="M 50.675 374.4 
L 50.675 267.652174 
" style="fill: none; stroke: #000000; stroke-width: 0.8; stroke-linejoin: miter; stroke-linecap: square"/>
   </g>
   <g id="patch_24">
    <path d="M 204.3075 374.4 
L 204.3075 267.652174 
" style="fill: none; stroke: #000000; stroke-width: 0.8; stroke-linejoin: miter; stroke-linecap: square"/>
   </g>
   <g id="patch_25">
    <path d="M 50.675 374.4 
L 204.3075 374.4 
" style="fill: none; stroke: #000000; stroke-width: 0.8; stroke-linejoin: miter; stroke-linecap: square"/>
   </g>
   <g id="patch_26">
    <path d="M 50.675 267.652174 
L 204.3075 267.652174 
" style="fill: none; stroke: #000000; stroke-width: 0.8; stroke-linejoin: miter; stroke-linecap: square"/>
   </g>
  </g>
  <g id="axes_6">
   <g id="patch_27">
    <path d="M 218.6075 374.4 
L 372.24 374.4 
L 372.24 267.652174 
L 218.6075 267.652174 
z
" style="fill: #ffffff"/>
   </g>
   <g id="matplotlib.axis_11">
    <g id="xtick_21">
     <g id="line2d_61">
      <g>
       <use xlink:href="#m238e4b4da5" x="225.590795" y="374.4" style="stroke: #000000; stroke-width: 0.8"/>
      </g>
     </g>
     <g id="text_26">
      <!-- 0 -->
      <g transform="translate(222.409545 388.998438)scale(0.1 -0.1)">
       <use xlink:href="#DejaVuSans-30"/>
      </g>
     </g>
    </g>
    <g id="xtick_22">
     <g id="line2d_62">
      <g>
       <use xlink:href="#m238e4b4da5" x="268.855751" y="374.4" style="stroke: #000000; stroke-width: 0.8"/>
      </g>
     </g>
     <g id="text_27">
      <!-- 50 -->
      <g transform="translate(262.493251 388.998438)scale(0.1 -0.1)">
       <use xlink:href="#DejaVuSans-35"/>
       <use xlink:href="#DejaVuSans-30" x="63.623047"/>
      </g>
     </g>
    </g>
    <g id="xtick_23">
     <g id="line2d_63">
      <g>
       <use xlink:href="#m238e4b4da5" x="312.120706" y="374.4" style="stroke: #000000; stroke-width: 0.8"/>
      </g>
     </g>
     <g id="text_28">
      <!-- 100 -->
      <g transform="translate(302.576956 388.998438)scale(0.1 -0.1)">
       <use xlink:href="#DejaVuSans-31"/>
       <use xlink:href="#DejaVuSans-30" x="63.623047"/>
       <use xlink:href="#DejaVuSans-30" x="127.246094"/>
      </g>
     </g>
    </g>
    <g id="xtick_24">
     <g id="line2d_64">
      <g>
       <use xlink:href="#m238e4b4da5" x="355.385661" y="374.4" style="stroke: #000000; stroke-width: 0.8"/>
      </g>
     </g>
     <g id="text_29">
      <!-- 150 -->
      <g transform="translate(345.841911 388.998438)scale(0.1 -0.1)">
       <use xlink:href="#DejaVuSans-31"/>
       <use xlink:href="#DejaVuSans-35" x="63.623047"/>
       <use xlink:href="#DejaVuSans-30" x="127.246094"/>
      </g>
     </g>
    </g>
    <g id="text_30">
     <!-- path length s -->
     <g transform="translate(262.33625 402.676563)scale(0.1 -0.1)">
      <use xlink:href="#DejaVuSans-70"/>
      <use xlink:href="#DejaVuSans-61" x="63.476562"/>
      <use xlink:href="#DejaVuSans-74" x="124.755859"/>
      <use xlink:href="#DejaVuSans-68" x="163.964844"/>
      <use xlink:href="#DejaVuSans-20" x="227.34375"/>
      <use xlink:href="#DejaVuSans-6c" x="259.130859"/>
      <use xlink:href="#DejaVuSans-65" x="286.914062"/>
      <use xlink:href="#DejaVuSans-6e" x="348.4375"/>
      <use xlink:href="#DejaVuSans-67" x="411.816406"/>
      <use xlink:href="#DejaVuSans-74" x="475.292969"/>
      <use xlink:href="#DejaVuSans-68" x="514.501953"/>
      <use xlink:href="#DejaVuSans-20" x="577.880859"/>
      <use xlink:href="#DejaVuSans-73" x="609.667969"/>
     </g>
    </g>
   </g>
   <g id="matplotlib.axis_12">
    <g id="ytick_26">
     <g id="line2d_65">
      <g>
       <use xlink:href="#m7c2340eade" x="218.6075" y="369.547826" style="stroke: #000000; stroke-width: 0.8"/>
      </g>
     </g>
    </g>
    <g id="ytick_27">
     <g id="line2d_66">
      <g>
       <use xlink:href="#m7c2340eade" x="218.6075" y="345.286957" style="stroke: #000000; stroke-width: 0.8"/>
      </g>
     </g>
    </g>
    <g id="ytick_28">
     <g id="line2d_67">
      <g>
       <use xlink:href="#m7c2340eade" x="218.6075" y="321.026087" style="stroke: #000000; stroke-width: 0.8"/>
      </g>
     </g>
    </g>
    <g id="ytick_29">
     <g id="line2d_68">
      <g>
       <use xlink:href="#m7c2340eade" x="218.6075" y="296.765217" style="stroke: #000000; stroke-width: 0.8"/>
      </g>
     </g>
    </g>
    <g id="ytick_30">
     <g id="line2d_69">
      <g>
       <use xlink:href="#m7c2340eade" x="218.6075" y="272.504348" style="stroke: #000000; stroke-width: 0.8"/>
      </g>
     </g>
    </g>
   </g>
   <g id="line2d_70">
    <path d="M 225.590795 338.86545 
L 225.677325 338.866591 
L 225.763855 338.867733 
L 225.850385 338.868877 
L 225.936915 338.870022 
L 226.023445 338.871169 
L 226.127281 338.872547 
L 226.251884 338.874204 
L 226.401408 338.876196 
L 226.580836 338.878594 
L 226.79615 338.881479 
L 227.054527 338.884955 
L 227.364579 338.889144 
L 227.736642 338.894198 
L 228.183118 338.900303 
L 228.718888 338.907686 
L 229.361812 338.916628 
L 230.133322 338.927482 
L 231.059133 338.940686 
L 232.170107 338.956795 
L 233.503275 338.976515 
L 235.103077 339.00076 
L 237.022839 339.030723 
L 239.326553 339.067992 
L 242.091011 339.114718 
L 245.40836 339.173887 
L 249.389179 339.249756 
L 254.166162 339.348601 
L 259.898541 339.480054 
L 266.777396 339.659641 
L 275.032021 339.913954 
L 284.93757 340.292113 
L 296.824222 340.893617 
L 311.088173 341.940707 
L 328.204632 343.932426 
L 348.740257 348.070198 
L 361.049098 349.488487 
L 363.136423 347.550429 
L 364.180342 346.24508 
L 364.702343 345.533898 
L 364.96333 345.153309 
L 365.223385 344.689785 
L 365.250304 344.60176 
L 365.254178 344.583069 
L 365.255665 344.575335 
L 365.256362 344.571681 
L 365.256705 344.569889 
" clip-path="url(#p17e937f8ce)" style="fill: none; stroke: #1f77b4; stroke-width: 1.5; stroke-linecap: square"/>
   </g>
   <g id="line2d_71">
    <path d="M 225.590795 338.86545 
L 225.677325 338.866445 
L 225.763855 338.867441 
L 225.850385 338.868438 
L 225.936915 338.869437 
L 226.023445 338.870436 
L 226.127281 338.871637 
L 226.251884 338.87308 
L 226.401408 338.874815 
L 226.580836 338.876902 
L 226.79615 338.879413 
L 227.054527 338.882435 
L 227.364579 338.886076 
L 227.736642 338.890465 
L 228.183118 338.895761 
L 228.718888 338.902159 
L 229.361812 338.909898 
L 230.133322 338.919275 
L 231.059133 338.930658 
L 232.170107 338.944511 
L 233.503275 338.961418 
L 235.103077 338.982127 
L 237.022839 339.007603 
L 239.326553 339.039109 
L 242.091011 339.07833 
L 245.40836 339.127551 
L 249.389179 339.189948 
L 254.166162 339.270048 
L 259.898541 339.374517 
L 266.777396 339.513522 
L 275.032021 339.703182 
L 284.93757 339.969925 
L 296.824222 340.356476 
L 311.088173 340.908307 
L 328.204632 341.309775 
L 348.740257 335.791319 
L 361.049098 328.638701 
L 363.136423 328.790732 
L 364.180342 329.100062 
L 364.702343 329.327271 
L 364.96333 329.478287 
L 365.223385 329.730112 
L 365.250304 329.800185 
L 365.254178 329.817341 
L 365.255665 329.824763 
L 365.256362 329.828344 
L 365.256705 329.830117 
" clip-path="url(#p17e937f8ce)" style="fill: none; stroke: #ff7f0e; stroke-width: 1.5; stroke-linecap: square"/>
   </g>
   <g id="line2d_72">
    <path d="M 225.590795 333.8691 
L 225.677325 333.866964 
L 225.763855 333.864826 
L 225.850385 333.862685 
L 225.936915 333.860541 
L 226.023445 333.858395 
L 226.127281 333.855816 
L 226.251884 333.852716 
L 226.401408 333.848988 
L 226.580836 333.844504 
L 226.79615 333.839108 
L 227.054527 333.83261 
L 227.364579 333.82478 
L 227.736642 333.815337 
L 228.183118 333.803936 
L 228.718888 333.790155 
L 229.361812 333.773474 
L 230.133322 333.753243 
L 231.059133 333.728656 
L 232.170107 333.698695 
L 233.503275 333.662067 
L 235.103077 333.617113 
L 237.022839 333.561674 
L 239.326553 333.492898 
L 242.091011 333.406951 
L 245.40836 333.298561 
L 249.389179 333.160296 
L 254.166162 332.981351 
L 259.898541 332.745429 
L 266.777396 332.426837 
L 275.032021 331.982864 
L 284.93757 331.337962 
L 296.824222 330.349906 
L 311.088173 328.750986 
L 328.204632 326.357799 
L 348.740257 327.738482 
L 361.049098 333.472812 
L 363.136423 335.258839 
L 364.180342 336.254858 
L 364.702343 336.738831 
L 364.96333 336.968404 
L 365.223385 337.180102 
L 365.250304 337.198055 
L 365.254178 337.19959 
L 365.255665 337.199902 
L 365.256362 337.199976 
L 365.256705 337.199994 
" clip-path="url(#p17e937f8ce)" style="fill: none; stroke: #2ca02c; stroke-width: 1.5; stroke-linecap: square"/>
   </g>
   <g id="patch_28">
    <path d="M 218.6075 374.4 
L 218.6075 267.652174 
" style="fill: none; stroke: #000000; stroke-width: 0.8; stroke-linejoin: miter; stroke-linecap: square"/>
   </g>
   <g id="patch_29">
    <path d="M 372.24 374.4 
L 372.24 267.652174 
" style="fill: none; stroke: #000000; stroke-width: 0.8; stroke-linejoin: miter; stroke-linecap: square"/>
   </g>
   <g id="patch_30">
    <path d="M 218.6075 374.4 
L 372.24 374.4 
" style="fill: none; stroke: #000000; stroke-width: 0.8; stroke-linejoin: miter; stroke-linecap: square"/>
   </g>
   <g id="patch_31">
    <path d="M 218.6075 267.652174 
L 372.24 267.652174 
" style="fill: none; stroke: #000000; stroke-width: 0.8; stroke-linejoin: miter; stroke-linecap: square"/>
   </g>
  </g>
  <g id="legend_1">
   <g id="patch_32">
    <path d="M 71.804375 427 
L 311.235625 427 
Q 313.235625 427 313.235625 425 
L 313.235625 411.321875 
Q 313.235625 409.321875 311.235625 409.321875 
L 71.804375 409.321875 
Q 69.804375 409.321875 69.804375 411.321875 
L 69.804375 425 
Q 69.804375 427 71.804375 427 
z
" style="fill: #ffffff; opacity: 0.8; stroke: #cccccc; stroke-linejoin: miter"/>
   </g>
   <g id="line2d_73">
    <path d="M 73.804375 417.420313 
L 83.804375 417.420313 
L 93.804375 417.420313 
" style="fill: none; stroke: #1f77b4; stroke-width: 1.5; stroke-linecap: square"/>
   </g>
   <g id="text_31">
    <!-- action0 -->
    <g transform="translate(101.804375 420.920313)scale(0.1 -0.1)">
     <defs>
      <path id="DejaVuSans-63" d="M 3122 3366 
L 3122 2828 
Q 2878 2963 2633 3030 
Q 2388 3097 2138 3097 
Q 1578 3097 1268 2742 
Q 959 2388 959 1747 
Q 959 1106 1268 751 
Q 1578 397 2138 397 
Q 2388 397 2633 464 
Q 2878 531 3122 666 
L 3122 134 
Q 2881 22 2623 -34 
Q 2366 -91 2075 -91 
Q 1284 -91 818 406 
Q 353 903 353 1747 
Q 353 2603 823 3093 
Q 1294 3584 2113 3584 
Q 2378 3584 2631 3529 
Q 2884 3475 3122 3366 
z
" transform="scale(0.015625)"/>
      <path id="DejaVuSans-69" d="M 603 3500 
L 1178 3500 
L 1178 0 
L 603 0 
L 603 3500 
z
M 603 4863 
L 1178 4863 
L 1178 4134 
L 603 4134 
L 603 4863 
z
" transform="scale(0.015625)"/>
      <path id="DejaVuSans-6f" d="M 1959 3097 
Q 1497 3097 1228 2736 
Q 959 2375 959 1747 
Q 959 1119 1226 758 
Q 1494 397 1959 397 
Q 2419 397 2687 759 
Q 2956 1122 2956 1747 
Q 2956 2369 2687 2733 
Q 2419 3097 1959 3097 
z
M 1959 3584 
Q 2709 3584 3137 3096 
Q 3566 2609 3566 1747 
Q 3566 888 3137 398 
Q 2709 -91 1959 -91 
Q 1206 -91 779 398 
Q 353 888 353 1747 
Q 353 2609 779 3096 
Q 1206 3584 1959 3584 
z
" transform="scale(0.015625)"/>
     </defs>
     <use xlink:href="#DejaVuSans-61"/>
     <use xlink:href="#DejaVuSans-63" x="61.279297"/>
     <use xlink:href="#DejaVuSans-74" x="116.259766"/>
     <use xlink:href="#DejaVuSans-69" x="155.46875"/>
     <use xlink:href="#DejaVuSans-6f" x="183.251953"/>
     <use xlink:href="#DejaVuSans-6e" x="244.433594"/>
     <use xlink:href="#DejaVuSans-30" x="307.8125"/>
    </g>
   </g>
   <g id="line2d_74">
    <path d="M 158.948125 417.420313 
L 168.948125 417.420313 
L 178.948125 417.420313 
" style="fill: none; stroke: #ff7f0e; stroke-width: 1.5; stroke-linecap: square"/>
   </g>
   <g id="text_32">
    <!-- action1 -->
    <g transform="translate(186.948125 420.920313)scale(0.1 -0.1)">
     <use xlink:href="#DejaVuSans-61"/>
     <use xlink:href="#DejaVuSans-63" x="61.279297"/>
     <use xlink:href="#DejaVuSans-74" x="116.259766"/>
     <use xlink:href="#DejaVuSans-69" x="155.46875"/>
     <use xlink:href="#DejaVuSans-6f" x="183.251953"/>
     <use xlink:href="#DejaVuSans-6e" x="244.433594"/>
     <use xlink:href="#DejaVuSans-31" x="307.8125"/>
    </g>
   </g>
   <g id="line2d_75">
    <path d="M 244.091875 417.420313 
L 254.091875 417.420313 
L 264.091875 417.420313 
" style="fill: none; stroke: #2ca02c; stroke-width: 1.5; stroke-linecap: square"/>
   </g>
   <g id="text_33">
    <!-- action2 -->
    <g transform="translate(272.091875 420.920313)scale(0.1 -0.1)">
     <use xlink:href="#DejaVuSans-61"/>
     <use xlink:href="#DejaVuSans-63" x="61.279297"/>
     <use xlink:href="#DejaVuSans-74" x="116.259766"/>
     <use xlink:href="#DejaVuSans-69" x="155.46875"/>
     <use xlink:href="#DejaVuSans-6f" x="183.251953"/>
     <use xlink:href="#DejaVuSans-6e" x="244.433594"/>
     <use xlink:href="#DejaVuSans-32" x="307.8125"/>
    </g>
   </g>
  </g>
 </g>
 <defs>
  <clipPath id="p07f4296f53">
   <rect x="50.675" y="26.8" width="153.6325" height="106.747826"/>
  </clipPath>
  <clipPath id="pf4a542fbe6">
   <rect x="218.6075" y="26.8" width="153.6325" height="106.747826"/>
  </clipPath>
  <clipPath id="pafe7e3f081">
   <rect x="50.675" y="147.226087" width="153.6325" height="106.747826"/>
  </clipPath>
  <clipPath id="pdee2602bb4">
   <rect x="218.6075" y="147.226087" width="153.6325" height="106.747826"/>
  </clipPath>
  <clipPath id="p81d48df0b9">
   <rect x="50.675" y="267.652174" width="153.6325" height="106.747826"/>
  </clipPath>
  <clipPath id="p17e937f8ce">
   <rect x="218.6075" y="267.652174" width="153.6325" height="106.747826"/>
  </clipPath>
 </defs>
</svg>
