<?xml version="1.0" encoding="utf-8" standalone="no"?>
<!DOCTYPE svg PUBLIC "-//W3C//DTD SVG 1.1//EN"
  "http://www.w3.org/Graphics/SVG/1.1/DTD/svg11.dtd">
<svg xmlns:xlink="http://www.w3.org/1999/xlink" width="383.04pt" height="432pt" viewBox="0 0 383.04 432" xmlns="http://www.w3.org/2000/svg" version="1.1">
 <metadata>
  <rdf:RDF xmlns:dc="http://purl.org/dc/elements/1.1/" xmlns:cc="http://creativecommons.org/ns#" xmlns:rdf="http://www.w3.org/1999/02/22-rdf-syntax-ns#">
   <cc:Work>
    <dc:type rdf:resource="http://purl.org/dc/dcmitype/StillImage"/>
    <dc:date>2022-07-11T13:42:22.015748</dc:date>
    <dc:format>image/svg+xml</dc:format>
    <dc:creator>
     <cc:Agent>
      <dc:title>Matplotlib v3.5.2, https://matplotlib.org/</dc:title>
     </cc:Agent>
    </dc:creator>
   </cc:Work>
  </rdf:RDF>
 </metadata>
 <defs>
  <style type="text/css">*{stroke-linejoin: round; stroke-linecap: butt}</style>
 </defs>
 <g id="figure_1">
  <g id="patch_1">
   <path d="M 0 432 
L 383.04 432 
L 383.04 0 
L 0 0 
L 0 432 
z
" style="fill: none"/>
  </g>
  <g id="axes_1">
   <g id="patch_2">
    <path d="M 50.675 133.547826 
L 202.473971 133.547826 
L 202.473971 26.8 
L 50.675 26.8 
z
" style="fill: #ffffff"/>
   </g>
   <g id="matplotlib.axis_1">
    <g id="xtick_1">
     <g id="line2d_1">
      <defs>
       <path id="mf6fdbc0bca" d="M 0 0 
L 0 3.5 
" style="stroke: #000000; stroke-width: 0.8"/>
      </defs>
      <g>
       <use xlink:href="#mf6fdbc0bca" x="57.574953" y="133.547826" style="stroke: #000000; stroke-width: 0.8"/>
      </g>
     </g>
    </g>
    <g id="xtick_2">
     <g id="line2d_2">
      <g>
       <use xlink:href="#mf6fdbc0bca" x="92.082993" y="133.547826" style="stroke: #000000; stroke-width: 0.8"/>
      </g>
     </g>
    </g>
    <g id="xtick_3">
     <g id="line2d_3">
      <g>
       <use xlink:href="#mf6fdbc0bca" x="126.591033" y="133.547826" style="stroke: #000000; stroke-width: 0.8"/>
      </g>
     </g>
    </g>
    <g id="xtick_4">
     <g id="line2d_4">
      <g>
       <use xlink:href="#mf6fdbc0bca" x="161.099072" y="133.547826" style="stroke: #000000; stroke-width: 0.8"/>
      </g>
     </g>
    </g>
    <g id="xtick_5">
     <g id="line2d_5">
      <g>
       <use xlink:href="#mf6fdbc0bca" x="195.607112" y="133.547826" style="stroke: #000000; stroke-width: 0.8"/>
      </g>
     </g>
    </g>
   </g>
   <g id="matplotlib.axis_2">
    <g id="ytick_1">
     <g id="line2d_6">
      <defs>
       <path id="mb0d2dc90f3" d="M 0 0 
L -3.5 0 
" style="stroke: #000000; stroke-width: 0.8"/>
      </defs>
      <g>
       <use xlink:href="#mb0d2dc90f3" x="50.675" y="128.695652" style="stroke: #000000; stroke-width: 0.8"/>
      </g>
     </g>
     <g id="text_1">
      <!-- 0.00 -->
      <g transform="translate(21.409375 132.494871)scale(0.1 -0.1)">
       <defs>
        <path id="DejaVuSans-30" d="M 2034 4250 
Q 1547 4250 1301 3770 
Q 1056 3291 1056 2328 
Q 1056 1369 1301 889 
Q 1547 409 2034 409 
Q 2525 409 2770 889 
Q 3016 1369 3016 2328 
Q 3016 3291 2770 3770 
Q 2525 4250 2034 4250 
z
M 2034 4750 
Q 2819 4750 3233 4129 
Q 3647 3509 3647 2328 
Q 3647 1150 3233 529 
Q 2819 -91 2034 -91 
Q 1250 -91 836 529 
Q 422 1150 422 2328 
Q 422 3509 836 4129 
Q 1250 4750 2034 4750 
z
" transform="scale(0.015625)"/>
        <path id="DejaVuSans-2e" d="M 684 794 
L 1344 794 
L 1344 0 
L 684 0 
L 684 794 
z
" transform="scale(0.015625)"/>
       </defs>
       <use xlink:href="#DejaVuSans-30"/>
       <use xlink:href="#DejaVuSans-2e" x="63.623047"/>
       <use xlink:href="#DejaVuSans-30" x="95.410156"/>
       <use xlink:href="#DejaVuSans-30" x="159.033203"/>
      </g>
     </g>
    </g>
    <g id="ytick_2">
     <g id="line2d_7">
      <g>
       <use xlink:href="#mb0d2dc90f3" x="50.675" y="104.434783" style="stroke: #000000; stroke-width: 0.8"/>
      </g>
     </g>
     <g id="text_2">
      <!-- 0.25 -->
      <g transform="translate(21.409375 108.234001)scale(0.1 -0.1)">
       <defs>
        <path id="DejaVuSans-32" d="M 1228 531 
L 3431 531 
L 3431 0 
L 469 0 
L 469 531 
Q 828 903 1448 1529 
Q 2069 2156 2228 2338 
Q 2531 2678 2651 2914 
Q 2772 3150 2772 3378 
Q 2772 3750 2511 3984 
Q 2250 4219 1831 4219 
Q 1534 4219 1204 4116 
Q 875 4013 500 3803 
L 500 4441 
Q 881 4594 1212 4672 
Q 1544 4750 1819 4750 
Q 2544 4750 2975 4387 
Q 3406 4025 3406 3419 
Q 3406 3131 3298 2873 
Q 3191 2616 2906 2266 
Q 2828 2175 2409 1742 
Q 1991 1309 1228 531 
z
" transform="scale(0.015625)"/>
        <path id="DejaVuSans-35" d="M 691 4666 
L 3169 4666 
L 3169 4134 
L 1269 4134 
L 1269 2991 
Q 1406 3038 1543 3061 
Q 1681 3084 1819 3084 
Q 2600 3084 3056 2656 
Q 3513 2228 3513 1497 
Q 3513 744 3044 326 
Q 2575 -91 1722 -91 
Q 1428 -91 1123 -41 
Q 819 9 494 109 
L 494 744 
Q 775 591 1075 516 
Q 1375 441 1709 441 
Q 2250 441 2565 725 
Q 2881 1009 2881 1497 
Q 2881 1984 2565 2268 
Q 2250 2553 1709 2553 
Q 1456 2553 1204 2497 
Q 953 2441 691 2322 
L 691 4666 
z
" transform="scale(0.015625)"/>
       </defs>
       <use xlink:href="#DejaVuSans-30"/>
       <use xlink:href="#DejaVuSans-2e" x="63.623047"/>
       <use xlink:href="#DejaVuSans-32" x="95.410156"/>
       <use xlink:href="#DejaVuSans-35" x="159.033203"/>
      </g>
     </g>
    </g>
    <g id="ytick_3">
     <g id="line2d_8">
      <g>
       <use xlink:href="#mb0d2dc90f3" x="50.675" y="80.173913" style="stroke: #000000; stroke-width: 0.8"/>
      </g>
     </g>
     <g id="text_3">
      <!-- 0.50 -->
      <g transform="translate(21.409375 83.973132)scale(0.1 -0.1)">
       <use xlink:href="#DejaVuSans-30"/>
       <use xlink:href="#DejaVuSans-2e" x="63.623047"/>
       <use xlink:href="#DejaVuSans-35" x="95.410156"/>
       <use xlink:href="#DejaVuSans-30" x="159.033203"/>
      </g>
     </g>
    </g>
    <g id="ytick_4">
     <g id="line2d_9">
      <g>
       <use xlink:href="#mb0d2dc90f3" x="50.675" y="55.913043" style="stroke: #000000; stroke-width: 0.8"/>
      </g>
     </g>
     <g id="text_4">
      <!-- 0.75 -->
      <g transform="translate(21.409375 59.712262)scale(0.1 -0.1)">
       <defs>
        <path id="DejaVuSans-37" d="M 525 4666 
L 3525 4666 
L 3525 4397 
L 1831 0 
L 1172 0 
L 2766 4134 
L 525 4134 
L 525 4666 
z
" transform="scale(0.015625)"/>
       </defs>
       <use xlink:href="#DejaVuSans-30"/>
       <use xlink:href="#DejaVuSans-2e" x="63.623047"/>
       <use xlink:href="#DejaVuSans-37" x="95.410156"/>
       <use xlink:href="#DejaVuSans-35" x="159.033203"/>
      </g>
     </g>
    </g>
    <g id="ytick_5">
     <g id="line2d_10">
      <g>
       <use xlink:href="#mb0d2dc90f3" x="50.675" y="31.652174" style="stroke: #000000; stroke-width: 0.8"/>
      </g>
     </g>
     <g id="text_5">
      <!-- 1.00 -->
      <g transform="translate(21.409375 35.451393)scale(0.1 -0.1)">
       <defs>
        <path id="DejaVuSans-31" d="M 794 531 
L 1825 531 
L 1825 4091 
L 703 3866 
L 703 4441 
L 1819 4666 
L 2450 4666 
L 2450 531 
L 3481 531 
L 3481 0 
L 794 0 
L 794 531 
z
" transform="scale(0.015625)"/>
       </defs>
       <use xlink:href="#DejaVuSans-31"/>
       <use xlink:href="#DejaVuSans-2e" x="63.623047"/>
       <use xlink:href="#DejaVuSans-30" x="95.410156"/>
       <use xlink:href="#DejaVuSans-30" x="159.033203"/>
      </g>
     </g>
    </g>
    <g id="text_6">
     <!-- state0 -->
     <g transform="translate(14.91375 99.190163)rotate(-90)scale(0.12 -0.12)">
      <defs>
       <path id="DejaVuSans-73" d="M 2834 3397 
L 2834 2853 
Q 2591 2978 2328 3040 
Q 2066 3103 1784 3103 
Q 1356 3103 1142 2972 
Q 928 2841 928 2578 
Q 928 2378 1081 2264 
Q 1234 2150 1697 2047 
L 1894 2003 
Q 2506 1872 2764 1633 
Q 3022 1394 3022 966 
Q 3022 478 2636 193 
Q 2250 -91 1575 -91 
Q 1294 -91 989 -36 
Q 684 19 347 128 
L 347 722 
Q 666 556 975 473 
Q 1284 391 1588 391 
Q 1994 391 2212 530 
Q 2431 669 2431 922 
Q 2431 1156 2273 1281 
Q 2116 1406 1581 1522 
L 1381 1569 
Q 847 1681 609 1914 
Q 372 2147 372 2553 
Q 372 3047 722 3315 
Q 1072 3584 1716 3584 
Q 2034 3584 2315 3537 
Q 2597 3491 2834 3397 
z
" transform="scale(0.015625)"/>
       <path id="DejaVuSans-74" d="M 1172 4494 
L 1172 3500 
L 2356 3500 
L 2356 3053 
L 1172 3053 
L 1172 1153 
Q 1172 725 1289 603 
Q 1406 481 1766 481 
L 2356 481 
L 2356 0 
L 1766 0 
Q 1100 0 847 248 
Q 594 497 594 1153 
L 594 3053 
L 172 3053 
L 172 3500 
L 594 3500 
L 594 4494 
L 1172 4494 
z
" transform="scale(0.015625)"/>
       <path id="DejaVuSans-61" d="M 2194 1759 
Q 1497 1759 1228 1600 
Q 959 1441 959 1056 
Q 959 750 1161 570 
Q 1363 391 1709 391 
Q 2188 391 2477 730 
Q 2766 1069 2766 1631 
L 2766 1759 
L 2194 1759 
z
M 3341 1997 
L 3341 0 
L 2766 0 
L 2766 531 
Q 2569 213 2275 61 
Q 1981 -91 1556 -91 
Q 1019 -91 701 211 
Q 384 513 384 1019 
Q 384 1609 779 1909 
Q 1175 2209 1959 2209 
L 2766 2209 
L 2766 2266 
Q 2766 2663 2505 2880 
Q 2244 3097 1772 3097 
Q 1472 3097 1187 3025 
Q 903 2953 641 2809 
L 641 3341 
Q 956 3463 1253 3523 
Q 1550 3584 1831 3584 
Q 2591 3584 2966 3190 
Q 3341 2797 3341 1997 
z
" transform="scale(0.015625)"/>
       <path id="DejaVuSans-65" d="M 3597 1894 
L 3597 1613 
L 953 1613 
Q 991 1019 1311 708 
Q 1631 397 2203 397 
Q 2534 397 2845 478 
Q 3156 559 3463 722 
L 3463 178 
Q 3153 47 2828 -22 
Q 2503 -91 2169 -91 
Q 1331 -91 842 396 
Q 353 884 353 1716 
Q 353 2575 817 3079 
Q 1281 3584 2069 3584 
Q 2775 3584 3186 3129 
Q 3597 2675 3597 1894 
z
M 3022 2063 
Q 3016 2534 2758 2815 
Q 2500 3097 2075 3097 
Q 1594 3097 1305 2825 
Q 1016 2553 972 2059 
L 3022 2063 
z
" transform="scale(0.015625)"/>
      </defs>
      <use xlink:href="#DejaVuSans-73"/>
      <use xlink:href="#DejaVuSans-74" x="52.099609"/>
      <use xlink:href="#DejaVuSans-61" x="91.308594"/>
      <use xlink:href="#DejaVuSans-74" x="152.587891"/>
      <use xlink:href="#DejaVuSans-65" x="191.796875"/>
      <use xlink:href="#DejaVuSans-30" x="253.320312"/>
     </g>
    </g>
   </g>
   <g id="line2d_11">
    <path d="M 57.574953 96.74642 
L 57.617703 96.746642 
L 57.660466 96.746865 
L 57.703242 96.747087 
L 57.746032 96.74731 
L 57.788834 96.747533 
L 57.840215 96.7478 
L 57.901898 96.748122 
L 57.975953 96.748509 
L 58.064873 96.748974 
L 58.171652 96.749533 
L 58.299896 96.750207 
L 58.453948 96.751017 
L 58.639039 96.751994 
L 58.861479 96.753171 
L 59.128886 96.754593 
L 59.450469 96.756311 
L 59.837374 96.75839 
L 60.303121 96.760911 
L 60.864145 96.763974 
L 61.540475 96.767704 
L 62.356605 96.772262 
L 63.342615 96.777851 
L 64.535627 96.784736 
L 65.981748 96.793263 
L 67.738703 96.803897 
L 69.879493 96.817263 
L 72.497638 96.834229 
L 75.714978 96.856015 
L 79.693831 96.884364 
L 84.6571 96.921751 
L 90.924197 96.971436 
L 98.982318 97.035828 
L 109.651047 97.101999 
L 124.565147 97.010224 
L 148.362813 95.245845 
L 171.939524 92.796847 
L 178.84519 92.690005 
L 183.699676 92.710861 
L 187.103486 92.755646 
L 189.470776 92.797321 
L 193.742489 92.888506 
L 195.017337 92.91887 
L 195.335523 92.926642 
L 195.473922 92.930045 
L 195.540841 92.931696 
L 195.574018 92.932515 
" clip-path="url(#p3e9b112c6e)" style="fill: none; stroke: #1f77b4; stroke-width: 1.5; stroke-linecap: square"/>
   </g>
   <g id="line2d_12">
    <path d="M 57.574953 96.74642 
L 57.617703 96.746723 
L 57.660466 96.747026 
L 57.703242 96.747329 
L 57.746032 96.747633 
L 57.788834 96.747937 
L 57.840215 96.748302 
L 57.901898 96.748742 
L 57.975953 96.749271 
L 58.064873 96.749907 
L 58.171652 96.750674 
L 58.299896 96.751597 
L 58.453948 96.752711 
L 58.639039 96.754056 
L 58.861479 96.755681 
L 59.128886 96.757649 
L 59.450469 96.760035 
L 59.837374 96.762935 
L 60.303121 96.766468 
L 60.864145 96.770788 
L 61.540475 96.776089 
L 62.356605 96.782627 
L 63.342615 96.790738 
L 64.535627 96.800873 
L 65.981748 96.813654 
L 67.738703 96.829958 
L 69.879493 96.851059 
L 72.497638 96.878884 
L 75.714978 96.916478 
L 79.693831 96.96894 
L 84.6571 97.045454 
L 90.924197 97.164185 
L 98.982318 97.36583 
L 109.651047 97.757502 
L 124.565147 98.664917 
L 148.362813 100.721912 
L 171.939524 100.78718 
L 178.84519 100.404694 
L 183.699676 100.170591 
L 187.103486 100.029646 
L 189.470776 99.943281 
L 193.742489 99.811032 
L 195.017337 99.777163 
L 195.335523 99.769091 
L 195.473922 99.765627 
L 195.540841 99.763961 
L 195.574018 99.763138 
" clip-path="url(#p3e9b112c6e)" style="fill: none; stroke: #ff7f0e; stroke-width: 1.5; stroke-linecap: square"/>
   </g>
   <g id="line2d_13">
    <path d="M 57.574953 95.550638 
L 57.617703 95.550113 
L 57.660466 95.549588 
L 57.703242 95.549062 
L 57.746032 95.548536 
L 57.788834 95.548009 
L 57.840215 95.547375 
L 57.901898 95.546614 
L 57.975953 95.545698 
L 58.064873 95.544597 
L 58.171652 95.543271 
L 58.299896 95.541674 
L 58.453948 95.53975 
L 58.639039 95.537429 
L 58.861479 95.534626 
L 59.128886 95.531237 
L 59.450469 95.527133 
L 59.837374 95.522154 
L 60.303121 95.516099 
L 60.864145 95.508717 
L 61.540475 95.499685 
L 62.356605 95.488589 
L 63.342615 95.47489 
L 64.535627 95.45787 
L 65.981748 95.436561 
L 67.738703 95.409624 
L 69.879493 95.375156 
L 72.497638 95.330366 
L 75.714978 95.270986 
L 79.693831 95.190175 
L 84.6571 95.076273 
L 90.924197 94.907857 
L 98.982318 94.64182 
L 109.651047 94.183977 
L 124.565147 93.368337 
L 148.362813 93.075721 
L 171.939524 95.459451 
L 178.84519 95.948779 
L 183.699676 96.162027 
L 187.103486 96.258186 
L 189.470776 96.302876 
L 193.742489 96.34394 
L 195.017337 96.347445 
L 195.335523 96.347746 
L 195.473922 96.347807 
L 195.540841 96.347821 
L 195.574018 96.347825 
" clip-path="url(#p3e9b112c6e)" style="fill: none; stroke: #2ca02c; stroke-width: 1.5; stroke-linecap: square"/>
   </g>
   <g id="patch_3">
    <path d="M 50.675 133.547826 
L 50.675 26.8 
" style="fill: none; stroke: #000000; stroke-width: 0.8; stroke-linejoin: miter; stroke-linecap: square"/>
   </g>
   <g id="patch_4">
    <path d="M 202.473971 133.547826 
L 202.473971 26.8 
" style="fill: none; stroke: #000000; stroke-width: 0.8; stroke-linejoin: miter; stroke-linecap: square"/>
   </g>
   <g id="patch_5">
    <path d="M 50.675 133.547826 
L 202.473971 133.547826 
" style="fill: none; stroke: #000000; stroke-width: 0.8; stroke-linejoin: miter; stroke-linecap: square"/>
   </g>
   <g id="patch_6">
    <path d="M 50.675 26.8 
L 202.473971 26.8 
" style="fill: none; stroke: #000000; stroke-width: 0.8; stroke-linejoin: miter; stroke-linecap: square"/>
   </g>
   <g id="text_7">
    <!-- player0 -->
    <g transform="translate(103.894486 20.8)scale(0.12 -0.12)">
     <defs>
      <path id="DejaVuSans-70" d="M 1159 525 
L 1159 -1331 
L 581 -1331 
L 581 3500 
L 1159 3500 
L 1159 2969 
Q 1341 3281 1617 3432 
Q 1894 3584 2278 3584 
Q 2916 3584 3314 3078 
Q 3713 2572 3713 1747 
Q 3713 922 3314 415 
Q 2916 -91 2278 -91 
Q 1894 -91 1617 61 
Q 1341 213 1159 525 
z
M 3116 1747 
Q 3116 2381 2855 2742 
Q 2594 3103 2138 3103 
Q 1681 3103 1420 2742 
Q 1159 2381 1159 1747 
Q 1159 1113 1420 752 
Q 1681 391 2138 391 
Q 2594 391 2855 752 
Q 3116 1113 3116 1747 
z
" transform="scale(0.015625)"/>
      <path id="DejaVuSans-6c" d="M 603 4863 
L 1178 4863 
L 1178 0 
L 603 0 
L 603 4863 
z
" transform="scale(0.015625)"/>
      <path id="DejaVuSans-79" d="M 2059 -325 
Q 1816 -950 1584 -1140 
Q 1353 -1331 966 -1331 
L 506 -1331 
L 506 -850 
L 844 -850 
Q 1081 -850 1212 -737 
Q 1344 -625 1503 -206 
L 1606 56 
L 191 3500 
L 800 3500 
L 1894 763 
L 2988 3500 
L 3597 3500 
L 2059 -325 
z
" transform="scale(0.015625)"/>
      <path id="DejaVuSans-72" d="M 2631 2963 
Q 2534 3019 2420 3045 
Q 2306 3072 2169 3072 
Q 1681 3072 1420 2755 
Q 1159 2438 1159 1844 
L 1159 0 
L 581 0 
L 581 3500 
L 1159 3500 
L 1159 2956 
Q 1341 3275 1631 3429 
Q 1922 3584 2338 3584 
Q 2397 3584 2469 3576 
Q 2541 3569 2628 3553 
L 2631 2963 
z
" transform="scale(0.015625)"/>
     </defs>
     <use xlink:href="#DejaVuSans-70"/>
     <use xlink:href="#DejaVuSans-6c" x="63.476562"/>
     <use xlink:href="#DejaVuSans-61" x="91.259766"/>
     <use xlink:href="#DejaVuSans-79" x="152.539062"/>
     <use xlink:href="#DejaVuSans-65" x="211.71875"/>
     <use xlink:href="#DejaVuSans-72" x="273.242188"/>
     <use xlink:href="#DejaVuSans-30" x="314.355469"/>
    </g>
   </g>
  </g>
  <g id="axes_2">
   <g id="patch_7">
    <path d="M 218.6075 133.547826 
L 370.406471 133.547826 
L 370.406471 26.8 
L 218.6075 26.8 
z
" style="fill: #ffffff"/>
   </g>
   <g id="matplotlib.axis_3">
    <g id="xtick_6">
     <g id="line2d_14">
      <g>
       <use xlink:href="#mf6fdbc0bca" x="225.507453" y="133.547826" style="stroke: #000000; stroke-width: 0.8"/>
      </g>
     </g>
    </g>
    <g id="xtick_7">
     <g id="line2d_15">
      <g>
       <use xlink:href="#mf6fdbc0bca" x="260.015493" y="133.547826" style="stroke: #000000; stroke-width: 0.8"/>
      </g>
     </g>
    </g>
    <g id="xtick_8">
     <g id="line2d_16">
      <g>
       <use xlink:href="#mf6fdbc0bca" x="294.523533" y="133.547826" style="stroke: #000000; stroke-width: 0.8"/>
      </g>
     </g>
    </g>
    <g id="xtick_9">
     <g id="line2d_17">
      <g>
       <use xlink:href="#mf6fdbc0bca" x="329.031572" y="133.547826" style="stroke: #000000; stroke-width: 0.8"/>
      </g>
     </g>
    </g>
    <g id="xtick_10">
     <g id="line2d_18">
      <g>
       <use xlink:href="#mf6fdbc0bca" x="363.539612" y="133.547826" style="stroke: #000000; stroke-width: 0.8"/>
      </g>
     </g>
    </g>
   </g>
   <g id="matplotlib.axis_4">
    <g id="ytick_6">
     <g id="line2d_19">
      <g>
       <use xlink:href="#mb0d2dc90f3" x="218.6075" y="128.695652" style="stroke: #000000; stroke-width: 0.8"/>
      </g>
     </g>
    </g>
    <g id="ytick_7">
     <g id="line2d_20">
      <g>
       <use xlink:href="#mb0d2dc90f3" x="218.6075" y="104.434783" style="stroke: #000000; stroke-width: 0.8"/>
      </g>
     </g>
    </g>
    <g id="ytick_8">
     <g id="line2d_21">
      <g>
       <use xlink:href="#mb0d2dc90f3" x="218.6075" y="80.173913" style="stroke: #000000; stroke-width: 0.8"/>
      </g>
     </g>
    </g>
    <g id="ytick_9">
     <g id="line2d_22">
      <g>
       <use xlink:href="#mb0d2dc90f3" x="218.6075" y="55.913043" style="stroke: #000000; stroke-width: 0.8"/>
      </g>
     </g>
    </g>
    <g id="ytick_10">
     <g id="line2d_23">
      <g>
       <use xlink:href="#mb0d2dc90f3" x="218.6075" y="31.652174" style="stroke: #000000; stroke-width: 0.8"/>
      </g>
     </g>
    </g>
   </g>
   <g id="line2d_24">
    <path d="M 225.507453 96.74642 
L 225.550203 96.746642 
L 225.592966 96.746865 
L 225.635742 96.747087 
L 225.678532 96.74731 
L 225.721334 96.747533 
L 225.772715 96.7478 
L 225.834398 96.748122 
L 225.908453 96.748509 
L 225.997373 96.748974 
L 226.104152 96.749533 
L 226.232396 96.750207 
L 226.386448 96.751017 
L 226.571539 96.751994 
L 226.793979 96.753171 
L 227.061386 96.754593 
L 227.382969 96.756311 
L 227.769874 96.75839 
L 228.235621 96.760911 
L 228.796645 96.763974 
L 229.472975 96.767704 
L 230.289105 96.772262 
L 231.275115 96.777851 
L 232.468127 96.784736 
L 233.914248 96.793263 
L 235.671203 96.803897 
L 237.811993 96.817263 
L 240.430138 96.834229 
L 243.647478 96.856015 
L 247.626331 96.884364 
L 252.5896 96.921751 
L 258.856697 96.971436 
L 266.914818 97.035828 
L 277.583547 97.101999 
L 292.497647 97.010224 
L 316.295313 95.245845 
L 339.872024 92.796847 
L 346.77769 92.690005 
L 351.632176 92.710861 
L 355.035986 92.755646 
L 357.403276 92.797321 
L 361.674989 92.888506 
L 362.949837 92.91887 
L 363.268023 92.926642 
L 363.406422 92.930045 
L 363.473341 92.931696 
L 363.506518 92.932515 
" clip-path="url(#p92ee223f41)" style="fill: none; stroke: #1f77b4; stroke-width: 1.5; stroke-linecap: square"/>
   </g>
   <g id="line2d_25">
    <path d="M 225.507453 96.74642 
L 225.550203 96.746723 
L 225.592966 96.747026 
L 225.635742 96.747329 
L 225.678532 96.747633 
L 225.721334 96.747937 
L 225.772715 96.748302 
L 225.834398 96.748742 
L 225.908453 96.749271 
L 225.997373 96.749907 
L 226.104152 96.750674 
L 226.232396 96.751597 
L 226.386448 96.752711 
L 226.571539 96.754056 
L 226.793979 96.755681 
L 227.061386 96.757649 
L 227.382969 96.760035 
L 227.769874 96.762935 
L 228.235621 96.766468 
L 228.796645 96.770788 
L 229.472975 96.776089 
L 230.289105 96.782627 
L 231.275115 96.790738 
L 232.468127 96.800873 
L 233.914248 96.813654 
L 235.671203 96.829958 
L 237.811993 96.851059 
L 240.430138 96.878884 
L 243.647478 96.916478 
L 247.626331 96.96894 
L 252.5896 97.045454 
L 258.856697 97.164185 
L 266.914818 97.36583 
L 277.583547 97.757502 
L 292.497647 98.664917 
L 316.295313 100.721912 
L 339.872024 100.78718 
L 346.77769 100.404694 
L 351.632176 100.170591 
L 355.035986 100.029646 
L 357.403276 99.943281 
L 361.674989 99.811032 
L 362.949837 99.777163 
L 363.268023 99.769091 
L 363.406422 99.765627 
L 363.473341 99.763961 
L 363.506518 99.763138 
" clip-path="url(#p92ee223f41)" style="fill: none; stroke: #ff7f0e; stroke-width: 1.5; stroke-linecap: square"/>
   </g>
   <g id="line2d_26">
    <path d="M 225.507453 95.550638 
L 225.550203 95.550113 
L 225.592966 95.549588 
L 225.635742 95.549062 
L 225.678532 95.548536 
L 225.721334 95.548009 
L 225.772715 95.547375 
L 225.834398 95.546614 
L 225.908453 95.545698 
L 225.997373 95.544597 
L 226.104152 95.543271 
L 226.232396 95.541674 
L 226.386448 95.53975 
L 226.571539 95.537429 
L 226.793979 95.534626 
L 227.061386 95.531237 
L 227.382969 95.527133 
L 227.769874 95.522154 
L 228.235621 95.516099 
L 228.796645 95.508717 
L 229.472975 95.499685 
L 230.289105 95.488589 
L 231.275115 95.47489 
L 232.468127 95.45787 
L 233.914248 95.436561 
L 235.671203 95.409624 
L 237.811993 95.375156 
L 240.430138 95.330366 
L 243.647478 95.270986 
L 247.626331 95.190175 
L 252.5896 95.076273 
L 258.856697 94.907857 
L 266.914818 94.64182 
L 277.583547 94.183977 
L 292.497647 93.368337 
L 316.295313 93.075721 
L 339.872024 95.459451 
L 346.77769 95.948779 
L 351.632176 96.162027 
L 355.035986 96.258186 
L 357.403276 96.302876 
L 361.674989 96.34394 
L 362.949837 96.347445 
L 363.268023 96.347746 
L 363.406422 96.347807 
L 363.473341 96.347821 
L 363.506518 96.347825 
" clip-path="url(#p92ee223f41)" style="fill: none; stroke: #2ca02c; stroke-width: 1.5; stroke-linecap: square"/>
   </g>
   <g id="patch_8">
    <path d="M 218.6075 133.547826 
L 218.6075 26.8 
" style="fill: none; stroke: #000000; stroke-width: 0.8; stroke-linejoin: miter; stroke-linecap: square"/>
   </g>
   <g id="patch_9">
    <path d="M 370.406471 133.547826 
L 370.406471 26.8 
" style="fill: none; stroke: #000000; stroke-width: 0.8; stroke-linejoin: miter; stroke-linecap: square"/>
   </g>
   <g id="patch_10">
    <path d="M 218.6075 133.547826 
L 370.406471 133.547826 
" style="fill: none; stroke: #000000; stroke-width: 0.8; stroke-linejoin: miter; stroke-linecap: square"/>
   </g>
   <g id="patch_11">
    <path d="M 218.6075 26.8 
L 370.406471 26.8 
" style="fill: none; stroke: #000000; stroke-width: 0.8; stroke-linejoin: miter; stroke-linecap: square"/>
   </g>
   <g id="text_8">
    <!-- player1 -->
    <g transform="translate(271.826986 20.8)scale(0.12 -0.12)">
     <use xlink:href="#DejaVuSans-70"/>
     <use xlink:href="#DejaVuSans-6c" x="63.476562"/>
     <use xlink:href="#DejaVuSans-61" x="91.259766"/>
     <use xlink:href="#DejaVuSans-79" x="152.539062"/>
     <use xlink:href="#DejaVuSans-65" x="211.71875"/>
     <use xlink:href="#DejaVuSans-72" x="273.242188"/>
     <use xlink:href="#DejaVuSans-31" x="314.355469"/>
    </g>
   </g>
  </g>
  <g id="axes_3">
   <g id="patch_12">
    <path d="M 50.675 253.973913 
L 202.473971 253.973913 
L 202.473971 147.226087 
L 50.675 147.226087 
z
" style="fill: #ffffff"/>
   </g>
   <g id="matplotlib.axis_5">
    <g id="xtick_11">
     <g id="line2d_27">
      <g>
       <use xlink:href="#mf6fdbc0bca" x="57.574953" y="253.973913" style="stroke: #000000; stroke-width: 0.8"/>
      </g>
     </g>
    </g>
    <g id="xtick_12">
     <g id="line2d_28">
      <g>
       <use xlink:href="#mf6fdbc0bca" x="92.082993" y="253.973913" style="stroke: #000000; stroke-width: 0.8"/>
      </g>
     </g>
    </g>
    <g id="xtick_13">
     <g id="line2d_29">
      <g>
       <use xlink:href="#mf6fdbc0bca" x="126.591033" y="253.973913" style="stroke: #000000; stroke-width: 0.8"/>
      </g>
     </g>
    </g>
    <g id="xtick_14">
     <g id="line2d_30">
      <g>
       <use xlink:href="#mf6fdbc0bca" x="161.099072" y="253.973913" style="stroke: #000000; stroke-width: 0.8"/>
      </g>
     </g>
    </g>
    <g id="xtick_15">
     <g id="line2d_31">
      <g>
       <use xlink:href="#mf6fdbc0bca" x="195.607112" y="253.973913" style="stroke: #000000; stroke-width: 0.8"/>
      </g>
     </g>
    </g>
   </g>
   <g id="matplotlib.axis_6">
    <g id="ytick_11">
     <g id="line2d_32">
      <g>
       <use xlink:href="#mb0d2dc90f3" x="50.675" y="249.121739" style="stroke: #000000; stroke-width: 0.8"/>
      </g>
     </g>
     <g id="text_9">
      <!-- 0.00 -->
      <g transform="translate(21.409375 252.920958)scale(0.1 -0.1)">
       <use xlink:href="#DejaVuSans-30"/>
       <use xlink:href="#DejaVuSans-2e" x="63.623047"/>
       <use xlink:href="#DejaVuSans-30" x="95.410156"/>
       <use xlink:href="#DejaVuSans-30" x="159.033203"/>
      </g>
     </g>
    </g>
    <g id="ytick_12">
     <g id="line2d_33">
      <g>
       <use xlink:href="#mb0d2dc90f3" x="50.675" y="224.86087" style="stroke: #000000; stroke-width: 0.8"/>
      </g>
     </g>
     <g id="text_10">
      <!-- 0.25 -->
      <g transform="translate(21.409375 228.660088)scale(0.1 -0.1)">
       <use xlink:href="#DejaVuSans-30"/>
       <use xlink:href="#DejaVuSans-2e" x="63.623047"/>
       <use xlink:href="#DejaVuSans-32" x="95.410156"/>
       <use xlink:href="#DejaVuSans-35" x="159.033203"/>
      </g>
     </g>
    </g>
    <g id="ytick_13">
     <g id="line2d_34">
      <g>
       <use xlink:href="#mb0d2dc90f3" x="50.675" y="200.6" style="stroke: #000000; stroke-width: 0.8"/>
      </g>
     </g>
     <g id="text_11">
      <!-- 0.50 -->
      <g transform="translate(21.409375 204.399219)scale(0.1 -0.1)">
       <use xlink:href="#DejaVuSans-30"/>
       <use xlink:href="#DejaVuSans-2e" x="63.623047"/>
       <use xlink:href="#DejaVuSans-35" x="95.410156"/>
       <use xlink:href="#DejaVuSans-30" x="159.033203"/>
      </g>
     </g>
    </g>
    <g id="ytick_14">
     <g id="line2d_35">
      <g>
       <use xlink:href="#mb0d2dc90f3" x="50.675" y="176.33913" style="stroke: #000000; stroke-width: 0.8"/>
      </g>
     </g>
     <g id="text_12">
      <!-- 0.75 -->
      <g transform="translate(21.409375 180.138349)scale(0.1 -0.1)">
       <use xlink:href="#DejaVuSans-30"/>
       <use xlink:href="#DejaVuSans-2e" x="63.623047"/>
       <use xlink:href="#DejaVuSans-37" x="95.410156"/>
       <use xlink:href="#DejaVuSans-35" x="159.033203"/>
      </g>
     </g>
    </g>
    <g id="ytick_15">
     <g id="line2d_36">
      <g>
       <use xlink:href="#mb0d2dc90f3" x="50.675" y="152.078261" style="stroke: #000000; stroke-width: 0.8"/>
      </g>
     </g>
     <g id="text_13">
      <!-- 1.00 -->
      <g transform="translate(21.409375 155.87748)scale(0.1 -0.1)">
       <use xlink:href="#DejaVuSans-31"/>
       <use xlink:href="#DejaVuSans-2e" x="63.623047"/>
       <use xlink:href="#DejaVuSans-30" x="95.410156"/>
       <use xlink:href="#DejaVuSans-30" x="159.033203"/>
      </g>
     </g>
    </g>
    <g id="text_14">
     <!-- state1 -->
     <g transform="translate(14.91375 219.61625)rotate(-90)scale(0.12 -0.12)">
      <use xlink:href="#DejaVuSans-73"/>
      <use xlink:href="#DejaVuSans-74" x="52.099609"/>
      <use xlink:href="#DejaVuSans-61" x="91.308594"/>
      <use xlink:href="#DejaVuSans-74" x="152.587891"/>
      <use xlink:href="#DejaVuSans-65" x="191.796875"/>
      <use xlink:href="#DejaVuSans-31" x="253.320312"/>
     </g>
    </g>
   </g>
   <g id="line2d_37">
    <path d="M 57.574953 218.439363 
L 57.617703 218.440504 
L 57.660466 218.441646 
L 57.703242 218.44279 
L 57.746032 218.443935 
L 57.788834 218.445082 
L 57.840215 218.44646 
L 57.901898 218.448117 
L 57.975953 218.450109 
L 58.064873 218.452507 
L 58.171652 218.455392 
L 58.299896 218.458868 
L 58.453948 218.463057 
L 58.639039 218.468111 
L 58.861479 218.474216 
L 59.128886 218.481599 
L 59.450469 218.490542 
L 59.837374 218.501395 
L 60.303121 218.514599 
L 60.864145 218.530708 
L 61.540475 218.550428 
L 62.356605 218.574673 
L 63.342615 218.604636 
L 64.535627 218.641905 
L 65.981748 218.688632 
L 67.738703 218.7478 
L 69.879493 218.823669 
L 72.497638 218.922514 
L 75.714978 219.053967 
L 79.693831 219.233554 
L 84.6571 219.487867 
L 90.924197 219.866026 
L 98.982318 220.467531 
L 109.651047 221.51462 
L 124.565147 223.506339 
L 148.362813 227.644111 
L 171.939524 229.0624 
L 178.84519 227.124342 
L 183.699676 225.818993 
L 187.103486 225.107811 
L 189.470776 224.727222 
L 193.742489 224.263699 
L 195.017337 224.175673 
L 195.335523 224.156982 
L 195.473922 224.149248 
L 195.540841 224.145594 
L 195.574018 224.143802 
" clip-path="url(#p6438466d89)" style="fill: none; stroke: #1f77b4; stroke-width: 1.5; stroke-linecap: square"/>
   </g>
   <g id="line2d_38">
    <path d="M 57.574953 218.439363 
L 57.617703 218.440358 
L 57.660466 218.441354 
L 57.703242 218.442351 
L 57.746032 218.44335 
L 57.788834 218.444349 
L 57.840215 218.44555 
L 57.901898 218.446993 
L 57.975953 218.448728 
L 58.064873 218.450815 
L 58.171652 218.453326 
L 58.299896 218.456348 
L 58.453948 218.459989 
L 58.639039 218.464378 
L 58.861479 218.469674 
L 59.128886 218.476072 
L 59.450469 218.483811 
L 59.837374 218.493188 
L 60.303121 218.504571 
L 60.864145 218.518424 
L 61.540475 218.535331 
L 62.356605 218.55604 
L 63.342615 218.581516 
L 64.535627 218.613022 
L 65.981748 218.652243 
L 67.738703 218.701464 
L 69.879493 218.763861 
L 72.497638 218.843961 
L 75.714978 218.94843 
L 79.693831 219.087435 
L 84.6571 219.277095 
L 90.924197 219.543838 
L 98.982318 219.930389 
L 109.651047 220.48222 
L 124.565147 220.883688 
L 148.362813 215.365232 
L 171.939524 208.212614 
L 178.84519 208.364645 
L 183.699676 208.673975 
L 187.103486 208.901184 
L 189.470776 209.0522 
L 193.742489 209.304025 
L 195.017337 209.374098 
L 195.335523 209.391254 
L 195.473922 209.398676 
L 195.540841 209.402257 
L 195.574018 209.40403 
" clip-path="url(#p6438466d89)" style="fill: none; stroke: #ff7f0e; stroke-width: 1.5; stroke-linecap: square"/>
   </g>
   <g id="line2d_39">
    <path d="M 57.574953 213.443013 
L 57.617703 213.440877 
L 57.660466 213.438739 
L 57.703242 213.436598 
L 57.746032 213.434454 
L 57.788834 213.432308 
L 57.840215 213.429729 
L 57.901898 213.426629 
L 57.975953 213.422901 
L 58.064873 213.418417 
L 58.171652 213.413021 
L 58.299896 213.406523 
L 58.453948 213.398693 
L 58.639039 213.38925 
L 58.861479 213.377849 
L 59.128886 213.364068 
L 59.450469 213.347387 
L 59.837374 213.327156 
L 60.303121 213.302569 
L 60.864145 213.272608 
L 61.540475 213.23598 
L 62.356605 213.191026 
L 63.342615 213.135587 
L 64.535627 213.066811 
L 65.981748 212.980864 
L 67.738703 212.872474 
L 69.879493 212.734209 
L 72.497638 212.555264 
L 75.714978 212.319342 
L 79.693831 212.00075 
L 84.6571 211.556777 
L 90.924197 210.911875 
L 98.982318 209.923819 
L 109.651047 208.324899 
L 124.565147 205.931713 
L 148.362813 207.312395 
L 171.939524 213.046725 
L 178.84519 214.832752 
L 183.699676 215.828771 
L 187.103486 216.312744 
L 189.470776 216.542317 
L 193.742489 216.754015 
L 195.017337 216.771968 
L 195.335523 216.773503 
L 195.473922 216.773815 
L 195.540841 216.773889 
L 195.574018 216.773907 
" clip-path="url(#p6438466d89)" style="fill: none; stroke: #2ca02c; stroke-width: 1.5; stroke-linecap: square"/>
   </g>
   <g id="patch_13">
    <path d="M 50.675 253.973913 
L 50.675 147.226087 
" style="fill: none; stroke: #000000; stroke-width: 0.8; stroke-linejoin: miter; stroke-linecap: square"/>
   </g>
   <g id="patch_14">
    <path d="M 202.473971 253.973913 
L 202.473971 147.226087 
" style="fill: none; stroke: #000000; stroke-width: 0.8; stroke-linejoin: miter; stroke-linecap: square"/>
   </g>
   <g id="patch_15">
    <path d="M 50.675 253.973913 
L 202.473971 253.973913 
" style="fill: none; stroke: #000000; stroke-width: 0.8; stroke-linejoin: miter; stroke-linecap: square"/>
   </g>
   <g id="patch_16">
    <path d="M 50.675 147.226087 
L 202.473971 147.226087 
" style="fill: none; stroke: #000000; stroke-width: 0.8; stroke-linejoin: miter; stroke-linecap: square"/>
   </g>
  </g>
  <g id="axes_4">
   <g id="patch_17">
    <path d="M 218.6075 253.973913 
L 370.406471 253.973913 
L 370.406471 147.226087 
L 218.6075 147.226087 
z
" style="fill: #ffffff"/>
   </g>
   <g id="matplotlib.axis_7">
    <g id="xtick_16">
     <g id="line2d_40">
      <g>
       <use xlink:href="#mf6fdbc0bca" x="225.507453" y="253.973913" style="stroke: #000000; stroke-width: 0.8"/>
      </g>
     </g>
    </g>
    <g id="xtick_17">
     <g id="line2d_41">
      <g>
       <use xlink:href="#mf6fdbc0bca" x="260.015493" y="253.973913" style="stroke: #000000; stroke-width: 0.8"/>
      </g>
     </g>
    </g>
    <g id="xtick_18">
     <g id="line2d_42">
      <g>
       <use xlink:href="#mf6fdbc0bca" x="294.523533" y="253.973913" style="stroke: #000000; stroke-width: 0.8"/>
      </g>
     </g>
    </g>
    <g id="xtick_19">
     <g id="line2d_43">
      <g>
       <use xlink:href="#mf6fdbc0bca" x="329.031572" y="253.973913" style="stroke: #000000; stroke-width: 0.8"/>
      </g>
     </g>
    </g>
    <g id="xtick_20">
     <g id="line2d_44">
      <g>
       <use xlink:href="#mf6fdbc0bca" x="363.539612" y="253.973913" style="stroke: #000000; stroke-width: 0.8"/>
      </g>
     </g>
    </g>
   </g>
   <g id="matplotlib.axis_8">
    <g id="ytick_16">
     <g id="line2d_45">
      <g>
       <use xlink:href="#mb0d2dc90f3" x="218.6075" y="249.121739" style="stroke: #000000; stroke-width: 0.8"/>
      </g>
     </g>
    </g>
    <g id="ytick_17">
     <g id="line2d_46">
      <g>
       <use xlink:href="#mb0d2dc90f3" x="218.6075" y="224.86087" style="stroke: #000000; stroke-width: 0.8"/>
      </g>
     </g>
    </g>
    <g id="ytick_18">
     <g id="line2d_47">
      <g>
       <use xlink:href="#mb0d2dc90f3" x="218.6075" y="200.6" style="stroke: #000000; stroke-width: 0.8"/>
      </g>
     </g>
    </g>
    <g id="ytick_19">
     <g id="line2d_48">
      <g>
       <use xlink:href="#mb0d2dc90f3" x="218.6075" y="176.33913" style="stroke: #000000; stroke-width: 0.8"/>
      </g>
     </g>
    </g>
    <g id="ytick_20">
     <g id="line2d_49">
      <g>
       <use xlink:href="#mb0d2dc90f3" x="218.6075" y="152.078261" style="stroke: #000000; stroke-width: 0.8"/>
      </g>
     </g>
    </g>
   </g>
   <g id="line2d_50">
    <path d="M 225.507453 215.990136 
L 225.550203 215.989457 
L 225.592966 215.988778 
L 225.635742 215.988097 
L 225.678532 215.987415 
L 225.721334 215.986732 
L 225.772715 215.98591 
L 225.834398 215.984922 
L 225.908453 215.983734 
L 225.997373 215.982302 
L 226.104152 215.980578 
L 226.232396 215.9785 
L 226.386448 215.975991 
L 226.571539 215.97296 
L 226.793979 215.969292 
L 227.061386 215.964847 
L 227.382969 215.959449 
L 227.769874 215.952877 
L 228.235621 215.944852 
L 228.796645 215.935017 
L 229.472975 215.922909 
L 230.289105 215.90792 
L 231.275115 215.88924 
L 232.468127 215.865763 
L 233.914248 215.835948 
L 235.671203 215.797581 
L 237.811993 215.747375 
L 240.430138 215.680245 
L 243.647478 215.587913 
L 247.626331 215.456027 
L 252.5896 215.257614 
L 258.856697 214.936296 
L 266.914818 214.355992 
L 277.583547 213.116242 
L 292.497647 209.739462 
L 316.295313 201.367835 
L 339.872024 200.154805 
L 346.77769 200.714963 
L 351.632176 201.245471 
L 355.035986 201.639536 
L 357.403276 201.911248 
L 361.674989 202.381747 
L 362.949837 202.515824 
L 363.268023 202.548808 
L 363.406422 202.563096 
L 363.473341 202.569991 
L 363.506518 202.573407 
" clip-path="url(#p684f751122)" style="fill: none; stroke: #1f77b4; stroke-width: 1.5; stroke-linecap: square"/>
   </g>
   <g id="line2d_51">
    <path d="M 225.507453 215.990136 
L 225.550203 215.989819 
L 225.592966 215.989501 
L 225.635742 215.989184 
L 225.678532 215.988866 
L 225.721334 215.988548 
L 225.772715 215.988167 
L 225.834398 215.987709 
L 225.908453 215.987159 
L 225.997373 215.986498 
L 226.104152 215.985705 
L 226.232396 215.984753 
L 226.386448 215.983608 
L 226.571539 215.982233 
L 226.793979 215.98058 
L 227.061386 215.978593 
L 227.382969 215.976204 
L 227.769874 215.97333 
L 228.235621 215.969871 
L 228.796645 215.965707 
L 229.472975 215.960694 
L 230.289105 215.954658 
L 231.275115 215.94739 
L 232.468127 215.938646 
L 233.914248 215.928146 
L 235.671203 215.915585 
L 237.811993 215.900677 
L 240.430138 215.883262 
L 243.647478 215.863597 
L 247.626331 215.843129 
L 252.5896 215.826662 
L 258.856697 215.829069 
L 266.914818 215.898948 
L 277.583547 216.218432 
L 292.497647 217.596036 
L 316.295313 222.710707 
L 339.872024 230.562856 
L 346.77769 231.730371 
L 351.632176 231.837301 
L 355.035986 231.695253 
L 357.403276 231.532462 
L 361.674989 231.157304 
L 362.949837 231.031143 
L 363.268023 230.998836 
L 363.406422 230.984687 
L 363.473341 230.977824 
L 363.506518 230.974417 
" clip-path="url(#p684f751122)" style="fill: none; stroke: #ff7f0e; stroke-width: 1.5; stroke-linecap: square"/>
   </g>
   <g id="line2d_52">
    <path d="M 225.507453 218.341467 
L 225.550203 218.342463 
L 225.592966 218.34346 
L 225.635742 218.344459 
L 225.678532 218.345458 
L 225.721334 218.346459 
L 225.772715 218.347662 
L 225.834398 218.349108 
L 225.908453 218.350847 
L 225.997373 218.352938 
L 226.104152 218.355456 
L 226.232396 218.358487 
L 226.386448 218.36214 
L 226.571539 218.366546 
L 226.793979 218.371867 
L 227.061386 218.378298 
L 227.382969 218.386086 
L 227.769874 218.395532 
L 228.235621 218.407016 
L 228.796645 218.421015 
L 229.472975 218.438136 
L 230.289105 218.459161 
L 231.275115 218.485109 
L 232.468127 218.51733 
L 233.914248 218.557645 
L 235.671203 218.608573 
L 237.811993 218.673687 
L 240.430138 218.758232 
L 243.647478 218.870229 
L 247.626331 219.022583 
L 252.5896 219.237463 
L 258.856697 219.556374 
L 266.914818 220.066799 
L 277.583547 220.987065 
L 292.497647 222.986241 
L 316.295313 226.243197 
L 339.872024 219.604081 
L 346.77769 217.876405 
L 351.632176 217.238967 
L 355.035986 216.98695 
L 357.403276 216.878029 
L 361.674989 216.782688 
L 362.949837 216.774772 
L 363.268023 216.774094 
L 363.406422 216.773957 
L 363.473341 216.773924 
L 363.506518 216.773916 
" clip-path="url(#p684f751122)" style="fill: none; stroke: #2ca02c; stroke-width: 1.5; stroke-linecap: square"/>
   </g>
   <g id="patch_18">
    <path d="M 218.6075 253.973913 
L 218.6075 147.226087 
" style="fill: none; stroke: #000000; stroke-width: 0.8; stroke-linejoin: miter; stroke-linecap: square"/>
   </g>
   <g id="patch_19">
    <path d="M 370.406471 253.973913 
L 370.406471 147.226087 
" style="fill: none; stroke: #000000; stroke-width: 0.8; stroke-linejoin: miter; stroke-linecap: square"/>
   </g>
   <g id="patch_20">
    <path d="M 218.6075 253.973913 
L 370.406471 253.973913 
" style="fill: none; stroke: #000000; stroke-width: 0.8; stroke-linejoin: miter; stroke-linecap: square"/>
   </g>
   <g id="patch_21">
    <path d="M 218.6075 147.226087 
L 370.406471 147.226087 
" style="fill: none; stroke: #000000; stroke-width: 0.8; stroke-linejoin: miter; stroke-linecap: square"/>
   </g>
  </g>
  <g id="axes_5">
   <g id="patch_22">
    <path d="M 50.675 374.4 
L 202.473971 374.4 
L 202.473971 267.652174 
L 50.675 267.652174 
z
" style="fill: #ffffff"/>
   </g>
   <g id="matplotlib.axis_9">
    <g id="xtick_21">
     <g id="line2d_53">
      <g>
       <use xlink:href="#mf6fdbc0bca" x="57.574953" y="374.4" style="stroke: #000000; stroke-width: 0.8"/>
      </g>
     </g>
     <g id="text_15">
      <!-- 0.00 -->
      <g transform="translate(46.442141 388.998438)scale(0.1 -0.1)">
       <use xlink:href="#DejaVuSans-30"/>
       <use xlink:href="#DejaVuSans-2e" x="63.623047"/>
       <use xlink:href="#DejaVuSans-30" x="95.410156"/>
       <use xlink:href="#DejaVuSans-30" x="159.033203"/>
      </g>
     </g>
    </g>
    <g id="xtick_22">
     <g id="line2d_54">
      <g>
       <use xlink:href="#mf6fdbc0bca" x="92.082993" y="374.4" style="stroke: #000000; stroke-width: 0.8"/>
      </g>
     </g>
     <g id="text_16">
      <!-- 0.25 -->
      <g transform="translate(80.95018 388.998438)scale(0.1 -0.1)">
       <use xlink:href="#DejaVuSans-30"/>
       <use xlink:href="#DejaVuSans-2e" x="63.623047"/>
       <use xlink:href="#DejaVuSans-32" x="95.410156"/>
       <use xlink:href="#DejaVuSans-35" x="159.033203"/>
      </g>
     </g>
    </g>
    <g id="xtick_23">
     <g id="line2d_55">
      <g>
       <use xlink:href="#mf6fdbc0bca" x="126.591033" y="374.4" style="stroke: #000000; stroke-width: 0.8"/>
      </g>
     </g>
     <g id="text_17">
      <!-- 0.50 -->
      <g transform="translate(115.45822 388.998438)scale(0.1 -0.1)">
       <use xlink:href="#DejaVuSans-30"/>
       <use xlink:href="#DejaVuSans-2e" x="63.623047"/>
       <use xlink:href="#DejaVuSans-35" x="95.410156"/>
       <use xlink:href="#DejaVuSans-30" x="159.033203"/>
      </g>
     </g>
    </g>
    <g id="xtick_24">
     <g id="line2d_56">
      <g>
       <use xlink:href="#mf6fdbc0bca" x="161.099072" y="374.4" style="stroke: #000000; stroke-width: 0.8"/>
      </g>
     </g>
     <g id="text_18">
      <!-- 0.75 -->
      <g transform="translate(149.96626 388.998438)scale(0.1 -0.1)">
       <use xlink:href="#DejaVuSans-30"/>
       <use xlink:href="#DejaVuSans-2e" x="63.623047"/>
       <use xlink:href="#DejaVuSans-37" x="95.410156"/>
       <use xlink:href="#DejaVuSans-35" x="159.033203"/>
      </g>
     </g>
    </g>
    <g id="xtick_25">
     <g id="line2d_57">
      <g>
       <use xlink:href="#mf6fdbc0bca" x="195.607112" y="374.4" style="stroke: #000000; stroke-width: 0.8"/>
      </g>
     </g>
     <g id="text_19">
      <!-- 1.00 -->
      <g transform="translate(184.474299 388.998438)scale(0.1 -0.1)">
       <use xlink:href="#DejaVuSans-31"/>
       <use xlink:href="#DejaVuSans-2e" x="63.623047"/>
       <use xlink:href="#DejaVuSans-30" x="95.410156"/>
       <use xlink:href="#DejaVuSans-30" x="159.033203"/>
      </g>
     </g>
    </g>
    <g id="text_20">
     <!-- homotopy parameter t -->
     <g transform="translate(69.728392 402.676563)scale(0.1 -0.1)">
      <defs>
       <path id="DejaVuSans-68" d="M 3513 2113 
L 3513 0 
L 2938 0 
L 2938 2094 
Q 2938 2591 2744 2837 
Q 2550 3084 2163 3084 
Q 1697 3084 1428 2787 
Q 1159 2491 1159 1978 
L 1159 0 
L 581 0 
L 581 4863 
L 1159 4863 
L 1159 2956 
Q 1366 3272 1645 3428 
Q 1925 3584 2291 3584 
Q 2894 3584 3203 3211 
Q 3513 2838 3513 2113 
z
" transform="scale(0.015625)"/>
       <path id="DejaVuSans-6f" d="M 1959 3097 
Q 1497 3097 1228 2736 
Q 959 2375 959 1747 
Q 959 1119 1226 758 
Q 1494 397 1959 397 
Q 2419 397 2687 759 
Q 2956 1122 2956 1747 
Q 2956 2369 2687 2733 
Q 2419 3097 1959 3097 
z
M 1959 3584 
Q 2709 3584 3137 3096 
Q 3566 2609 3566 1747 
Q 3566 888 3137 398 
Q 2709 -91 1959 -91 
Q 1206 -91 779 398 
Q 353 888 353 1747 
Q 353 2609 779 3096 
Q 1206 3584 1959 3584 
z
" transform="scale(0.015625)"/>
       <path id="DejaVuSans-6d" d="M 3328 2828 
Q 3544 3216 3844 3400 
Q 4144 3584 4550 3584 
Q 5097 3584 5394 3201 
Q 5691 2819 5691 2113 
L 5691 0 
L 5113 0 
L 5113 2094 
Q 5113 2597 4934 2840 
Q 4756 3084 4391 3084 
Q 3944 3084 3684 2787 
Q 3425 2491 3425 1978 
L 3425 0 
L 2847 0 
L 2847 2094 
Q 2847 2600 2669 2842 
Q 2491 3084 2119 3084 
Q 1678 3084 1418 2786 
Q 1159 2488 1159 1978 
L 1159 0 
L 581 0 
L 581 3500 
L 1159 3500 
L 1159 2956 
Q 1356 3278 1631 3431 
Q 1906 3584 2284 3584 
Q 2666 3584 2933 3390 
Q 3200 3197 3328 2828 
z
" transform="scale(0.015625)"/>
       <path id="DejaVuSans-20" transform="scale(0.015625)"/>
      </defs>
      <use xlink:href="#DejaVuSans-68"/>
      <use xlink:href="#DejaVuSans-6f" x="63.378906"/>
      <use xlink:href="#DejaVuSans-6d" x="124.560547"/>
      <use xlink:href="#DejaVuSans-6f" x="221.972656"/>
      <use xlink:href="#DejaVuSans-74" x="283.154297"/>
      <use xlink:href="#DejaVuSans-6f" x="322.363281"/>
      <use xlink:href="#DejaVuSans-70" x="383.544922"/>
      <use xlink:href="#DejaVuSans-79" x="447.021484"/>
      <use xlink:href="#DejaVuSans-20" x="506.201172"/>
      <use xlink:href="#DejaVuSans-70" x="537.988281"/>
      <use xlink:href="#DejaVuSans-61" x="601.464844"/>
      <use xlink:href="#DejaVuSans-72" x="662.744141"/>
      <use xlink:href="#DejaVuSans-61" x="703.857422"/>
      <use xlink:href="#DejaVuSans-6d" x="765.136719"/>
      <use xlink:href="#DejaVuSans-65" x="862.548828"/>
      <use xlink:href="#DejaVuSans-74" x="924.072266"/>
      <use xlink:href="#DejaVuSans-65" x="963.28125"/>
      <use xlink:href="#DejaVuSans-72" x="1024.804688"/>
      <use xlink:href="#DejaVuSans-20" x="1065.917969"/>
      <use xlink:href="#DejaVuSans-74" x="1097.705078"/>
     </g>
    </g>
   </g>
   <g id="matplotlib.axis_10">
    <g id="ytick_21">
     <g id="line2d_58">
      <g>
       <use xlink:href="#mb0d2dc90f3" x="50.675" y="369.547826" style="stroke: #000000; stroke-width: 0.8"/>
      </g>
     </g>
     <g id="text_21">
      <!-- 0.00 -->
      <g transform="translate(21.409375 373.347045)scale(0.1 -0.1)">
       <use xlink:href="#DejaVuSans-30"/>
       <use xlink:href="#DejaVuSans-2e" x="63.623047"/>
       <use xlink:href="#DejaVuSans-30" x="95.410156"/>
       <use xlink:href="#DejaVuSans-30" x="159.033203"/>
      </g>
     </g>
    </g>
    <g id="ytick_22">
     <g id="line2d_59">
      <g>
       <use xlink:href="#mb0d2dc90f3" x="50.675" y="345.286957" style="stroke: #000000; stroke-width: 0.8"/>
      </g>
     </g>
     <g id="text_22">
      <!-- 0.25 -->
      <g transform="translate(21.409375 349.086175)scale(0.1 -0.1)">
       <use xlink:href="#DejaVuSans-30"/>
       <use xlink:href="#DejaVuSans-2e" x="63.623047"/>
       <use xlink:href="#DejaVuSans-32" x="95.410156"/>
       <use xlink:href="#DejaVuSans-35" x="159.033203"/>
      </g>
     </g>
    </g>
    <g id="ytick_23">
     <g id="line2d_60">
      <g>
       <use xlink:href="#mb0d2dc90f3" x="50.675" y="321.026087" style="stroke: #000000; stroke-width: 0.8"/>
      </g>
     </g>
     <g id="text_23">
      <!-- 0.50 -->
      <g transform="translate(21.409375 324.825306)scale(0.1 -0.1)">
       <use xlink:href="#DejaVuSans-30"/>
       <use xlink:href="#DejaVuSans-2e" x="63.623047"/>
       <use xlink:href="#DejaVuSans-35" x="95.410156"/>
       <use xlink:href="#DejaVuSans-30" x="159.033203"/>
      </g>
     </g>
    </g>
    <g id="ytick_24">
     <g id="line2d_61">
      <g>
       <use xlink:href="#mb0d2dc90f3" x="50.675" y="296.765217" style="stroke: #000000; stroke-width: 0.8"/>
      </g>
     </g>
     <g id="text_24">
      <!-- 0.75 -->
      <g transform="translate(21.409375 300.564436)scale(0.1 -0.1)">
       <use xlink:href="#DejaVuSans-30"/>
       <use xlink:href="#DejaVuSans-2e" x="63.623047"/>
       <use xlink:href="#DejaVuSans-37" x="95.410156"/>
       <use xlink:href="#DejaVuSans-35" x="159.033203"/>
      </g>
     </g>
    </g>
    <g id="ytick_25">
     <g id="line2d_62">
      <g>
       <use xlink:href="#mb0d2dc90f3" x="50.675" y="272.504348" style="stroke: #000000; stroke-width: 0.8"/>
      </g>
     </g>
     <g id="text_25">
      <!-- 1.00 -->
      <g transform="translate(21.409375 276.303567)scale(0.1 -0.1)">
       <use xlink:href="#DejaVuSans-31"/>
       <use xlink:href="#DejaVuSans-2e" x="63.623047"/>
       <use xlink:href="#DejaVuSans-30" x="95.410156"/>
       <use xlink:href="#DejaVuSans-30" x="159.033203"/>
      </g>
     </g>
    </g>
    <g id="text_26">
     <!-- state2 -->
     <g transform="translate(14.91375 340.042337)rotate(-90)scale(0.12 -0.12)">
      <use xlink:href="#DejaVuSans-73"/>
      <use xlink:href="#DejaVuSans-74" x="52.099609"/>
      <use xlink:href="#DejaVuSans-61" x="91.308594"/>
      <use xlink:href="#DejaVuSans-74" x="152.587891"/>
      <use xlink:href="#DejaVuSans-65" x="191.796875"/>
      <use xlink:href="#DejaVuSans-32" x="253.320312"/>
     </g>
    </g>
   </g>
   <g id="line2d_63">
    <path d="M 57.574953 336.416223 
L 57.617703 336.415544 
L 57.660466 336.414865 
L 57.703242 336.414184 
L 57.746032 336.413502 
L 57.788834 336.412819 
L 57.840215 336.411997 
L 57.901898 336.411009 
L 57.975953 336.409821 
L 58.064873 336.408389 
L 58.171652 336.406665 
L 58.299896 336.404587 
L 58.453948 336.402078 
L 58.639039 336.399047 
L 58.861479 336.395379 
L 59.128886 336.390934 
L 59.450469 336.385536 
L 59.837374 336.378964 
L 60.303121 336.370939 
L 60.864145 336.361104 
L 61.540475 336.348996 
L 62.356605 336.334007 
L 63.342615 336.315327 
L 64.535627 336.29185 
L 65.981748 336.262035 
L 67.738703 336.223668 
L 69.879493 336.173462 
L 72.497638 336.106332 
L 75.714978 336.014 
L 79.693831 335.882114 
L 84.6571 335.683701 
L 90.924197 335.362383 
L 98.982318 334.782079 
L 109.651047 333.542329 
L 124.565147 330.165549 
L 148.362813 321.793922 
L 171.939524 320.580892 
L 178.84519 321.14105 
L 183.699676 321.671558 
L 187.103486 322.065623 
L 189.470776 322.337335 
L 193.742489 322.807834 
L 195.017337 322.941911 
L 195.335523 322.974895 
L 195.473922 322.989183 
L 195.540841 322.996078 
L 195.574018 322.999494 
" clip-path="url(#pcd7d446cdf)" style="fill: none; stroke: #1f77b4; stroke-width: 1.5; stroke-linecap: square"/>
   </g>
   <g id="line2d_64">
    <path d="M 57.574953 336.416223 
L 57.617703 336.415906 
L 57.660466 336.415588 
L 57.703242 336.415271 
L 57.746032 336.414953 
L 57.788834 336.414635 
L 57.840215 336.414254 
L 57.901898 336.413796 
L 57.975953 336.413246 
L 58.064873 336.412585 
L 58.171652 336.411792 
L 58.299896 336.41084 
L 58.453948 336.409695 
L 58.639039 336.40832 
L 58.861479 336.406667 
L 59.128886 336.40468 
L 59.450469 336.402291 
L 59.837374 336.399417 
L 60.303121 336.395958 
L 60.864145 336.391794 
L 61.540475 336.386781 
L 62.356605 336.380745 
L 63.342615 336.373477 
L 64.535627 336.364733 
L 65.981748 336.354233 
L 67.738703 336.341672 
L 69.879493 336.326764 
L 72.497638 336.309349 
L 75.714978 336.289684 
L 79.693831 336.269216 
L 84.6571 336.252749 
L 90.924197 336.255156 
L 98.982318 336.325035 
L 109.651047 336.644519 
L 124.565147 338.022123 
L 148.362813 343.136794 
L 171.939524 350.988942 
L 178.84519 352.156458 
L 183.699676 352.263388 
L 187.103486 352.12134 
L 189.470776 351.958549 
L 193.742489 351.583391 
L 195.017337 351.45723 
L 195.335523 351.424923 
L 195.473922 351.410774 
L 195.540841 351.403911 
L 195.574018 351.400504 
" clip-path="url(#pcd7d446cdf)" style="fill: none; stroke: #ff7f0e; stroke-width: 1.5; stroke-linecap: square"/>
   </g>
   <g id="line2d_65">
    <path d="M 57.574953 338.767554 
L 57.617703 338.76855 
L 57.660466 338.769547 
L 57.703242 338.770546 
L 57.746032 338.771545 
L 57.788834 338.772546 
L 57.840215 338.773749 
L 57.901898 338.775195 
L 57.975953 338.776934 
L 58.064873 338.779025 
L 58.171652 338.781543 
L 58.299896 338.784574 
L 58.453948 338.788227 
L 58.639039 338.792633 
L 58.861479 338.797954 
L 59.128886 338.804385 
L 59.450469 338.812173 
L 59.837374 338.821619 
L 60.303121 338.833103 
L 60.864145 338.847102 
L 61.540475 338.864223 
L 62.356605 338.885248 
L 63.342615 338.911196 
L 64.535627 338.943417 
L 65.981748 338.983732 
L 67.738703 339.03466 
L 69.879493 339.099774 
L 72.497638 339.184319 
L 75.714978 339.296316 
L 79.693831 339.44867 
L 84.6571 339.66355 
L 90.924197 339.982461 
L 98.982318 340.492886 
L 109.651047 341.413152 
L 124.565147 343.412328 
L 148.362813 346.669284 
L 171.939524 340.030168 
L 178.84519 338.302492 
L 183.699676 337.665054 
L 187.103486 337.413037 
L 189.470776 337.304116 
L 193.742489 337.208775 
L 195.017337 337.200859 
L 195.335523 337.200181 
L 195.473922 337.200043 
L 195.540841 337.200011 
L 195.574018 337.200003 
" clip-path="url(#pcd7d446cdf)" style="fill: none; stroke: #2ca02c; stroke-width: 1.5; stroke-linecap: square"/>
   </g>
   <g id="patch_23">
    <path d="M 50.675 374.4 
L 50.675 267.652174 
" style="fill: none; stroke: #000000; stroke-width: 0.8; stroke-linejoin: miter; stroke-linecap: square"/>
   </g>
   <g id="patch_24">
    <path d="M 202.473971 374.4 
L 202.473971 267.652174 
" style="fill: none; stroke: #000000; stroke-width: 0.8; stroke-linejoin: miter; stroke-linecap: square"/>
   </g>
   <g id="patch_25">
    <path d="M 50.675 374.4 
L 202.473971 374.4 
" style="fill: none; stroke: #000000; stroke-width: 0.8; stroke-linejoin: miter; stroke-linecap: square"/>
   </g>
   <g id="patch_26">
    <path d="M 50.675 267.652174 
L 202.473971 267.652174 
" style="fill: none; stroke: #000000; stroke-width: 0.8; stroke-linejoin: miter; stroke-linecap: square"/>
   </g>
  </g>
  <g id="axes_6">
   <g id="patch_27">
    <path d="M 218.6075 374.4 
L 370.406471 374.4 
L 370.406471 267.652174 
L 218.6075 267.652174 
z
" style="fill: #ffffff"/>
   </g>
   <g id="matplotlib.axis_11">
    <g id="xtick_26">
     <g id="line2d_66">
      <g>
       <use xlink:href="#mf6fdbc0bca" x="225.507453" y="374.4" style="stroke: #000000; stroke-width: 0.8"/>
      </g>
     </g>
     <g id="text_27">
      <!-- 0.00 -->
      <g transform="translate(214.374641 388.998438)scale(0.1 -0.1)">
       <use xlink:href="#DejaVuSans-30"/>
       <use xlink:href="#DejaVuSans-2e" x="63.623047"/>
       <use xlink:href="#DejaVuSans-30" x="95.410156"/>
       <use xlink:href="#DejaVuSans-30" x="159.033203"/>
      </g>
     </g>
    </g>
    <g id="xtick_27">
     <g id="line2d_67">
      <g>
       <use xlink:href="#mf6fdbc0bca" x="260.015493" y="374.4" style="stroke: #000000; stroke-width: 0.8"/>
      </g>
     </g>
     <g id="text_28">
      <!-- 0.25 -->
      <g transform="translate(248.88268 388.998438)scale(0.1 -0.1)">
       <use xlink:href="#DejaVuSans-30"/>
       <use xlink:href="#DejaVuSans-2e" x="63.623047"/>
       <use xlink:href="#DejaVuSans-32" x="95.410156"/>
       <use xlink:href="#DejaVuSans-35" x="159.033203"/>
      </g>
     </g>
    </g>
    <g id="xtick_28">
     <g id="line2d_68">
      <g>
       <use xlink:href="#mf6fdbc0bca" x="294.523533" y="374.4" style="stroke: #000000; stroke-width: 0.8"/>
      </g>
     </g>
     <g id="text_29">
      <!-- 0.50 -->
      <g transform="translate(283.39072 388.998438)scale(0.1 -0.1)">
       <use xlink:href="#DejaVuSans-30"/>
       <use xlink:href="#DejaVuSans-2e" x="63.623047"/>
       <use xlink:href="#DejaVuSans-35" x="95.410156"/>
       <use xlink:href="#DejaVuSans-30" x="159.033203"/>
      </g>
     </g>
    </g>
    <g id="xtick_29">
     <g id="line2d_69">
      <g>
       <use xlink:href="#mf6fdbc0bca" x="329.031572" y="374.4" style="stroke: #000000; stroke-width: 0.8"/>
      </g>
     </g>
     <g id="text_30">
      <!-- 0.75 -->
      <g transform="translate(317.89876 388.998438)scale(0.1 -0.1)">
       <use xlink:href="#DejaVuSans-30"/>
       <use xlink:href="#DejaVuSans-2e" x="63.623047"/>
       <use xlink:href="#DejaVuSans-37" x="95.410156"/>
       <use xlink:href="#DejaVuSans-35" x="159.033203"/>
      </g>
     </g>
    </g>
    <g id="xtick_30">
     <g id="line2d_70">
      <g>
       <use xlink:href="#mf6fdbc0bca" x="363.539612" y="374.4" style="stroke: #000000; stroke-width: 0.8"/>
      </g>
     </g>
     <g id="text_31">
      <!-- 1.00 -->
      <g transform="translate(352.406799 388.998438)scale(0.1 -0.1)">
       <use xlink:href="#DejaVuSans-31"/>
       <use xlink:href="#DejaVuSans-2e" x="63.623047"/>
       <use xlink:href="#DejaVuSans-30" x="95.410156"/>
       <use xlink:href="#DejaVuSans-30" x="159.033203"/>
      </g>
     </g>
    </g>
    <g id="text_32">
     <!-- homotopy parameter t -->
     <g transform="translate(237.660892 402.676563)scale(0.1 -0.1)">
      <use xlink:href="#DejaVuSans-68"/>
      <use xlink:href="#DejaVuSans-6f" x="63.378906"/>
      <use xlink:href="#DejaVuSans-6d" x="124.560547"/>
      <use xlink:href="#DejaVuSans-6f" x="221.972656"/>
      <use xlink:href="#DejaVuSans-74" x="283.154297"/>
      <use xlink:href="#DejaVuSans-6f" x="322.363281"/>
      <use xlink:href="#DejaVuSans-70" x="383.544922"/>
      <use xlink:href="#DejaVuSans-79" x="447.021484"/>
      <use xlink:href="#DejaVuSans-20" x="506.201172"/>
      <use xlink:href="#DejaVuSans-70" x="537.988281"/>
      <use xlink:href="#DejaVuSans-61" x="601.464844"/>
      <use xlink:href="#DejaVuSans-72" x="662.744141"/>
      <use xlink:href="#DejaVuSans-61" x="703.857422"/>
      <use xlink:href="#DejaVuSans-6d" x="765.136719"/>
      <use xlink:href="#DejaVuSans-65" x="862.548828"/>
      <use xlink:href="#DejaVuSans-74" x="924.072266"/>
      <use xlink:href="#DejaVuSans-65" x="963.28125"/>
      <use xlink:href="#DejaVuSans-72" x="1024.804688"/>
      <use xlink:href="#DejaVuSans-20" x="1065.917969"/>
      <use xlink:href="#DejaVuSans-74" x="1097.705078"/>
     </g>
    </g>
   </g>
   <g id="matplotlib.axis_12">
    <g id="ytick_26">
     <g id="line2d_71">
      <g>
       <use xlink:href="#mb0d2dc90f3" x="218.6075" y="369.547826" style="stroke: #000000; stroke-width: 0.8"/>
      </g>
     </g>
    </g>
    <g id="ytick_27">
     <g id="line2d_72">
      <g>
       <use xlink:href="#mb0d2dc90f3" x="218.6075" y="345.286957" style="stroke: #000000; stroke-width: 0.8"/>
      </g>
     </g>
    </g>
    <g id="ytick_28">
     <g id="line2d_73">
      <g>
       <use xlink:href="#mb0d2dc90f3" x="218.6075" y="321.026087" style="stroke: #000000; stroke-width: 0.8"/>
      </g>
     </g>
    </g>
    <g id="ytick_29">
     <g id="line2d_74">
      <g>
       <use xlink:href="#mb0d2dc90f3" x="218.6075" y="296.765217" style="stroke: #000000; stroke-width: 0.8"/>
      </g>
     </g>
    </g>
    <g id="ytick_30">
     <g id="line2d_75">
      <g>
       <use xlink:href="#mb0d2dc90f3" x="218.6075" y="272.504348" style="stroke: #000000; stroke-width: 0.8"/>
      </g>
     </g>
    </g>
   </g>
   <g id="line2d_76">
    <path d="M 225.507453 338.86545 
L 225.550203 338.866591 
L 225.592966 338.867733 
L 225.635742 338.868877 
L 225.678532 338.870022 
L 225.721334 338.871169 
L 225.772715 338.872547 
L 225.834398 338.874204 
L 225.908453 338.876196 
L 225.997373 338.878594 
L 226.104152 338.881479 
L 226.232396 338.884955 
L 226.386448 338.889144 
L 226.571539 338.894198 
L 226.793979 338.900303 
L 227.061386 338.907686 
L 227.382969 338.916628 
L 227.769874 338.927482 
L 228.235621 338.940686 
L 228.796645 338.956795 
L 229.472975 338.976515 
L 230.289105 339.00076 
L 231.275115 339.030723 
L 232.468127 339.067992 
L 233.914248 339.114718 
L 235.671203 339.173887 
L 237.811993 339.249756 
L 240.430138 339.348601 
L 243.647478 339.480054 
L 247.626331 339.659641 
L 252.5896 339.913954 
L 258.856697 340.292113 
L 266.914818 340.893617 
L 277.583547 341.940707 
L 292.497647 343.932426 
L 316.295313 348.070198 
L 339.872024 349.488487 
L 346.77769 347.550429 
L 351.632176 346.24508 
L 355.035986 345.533898 
L 357.403276 345.153309 
L 361.674989 344.689785 
L 362.949837 344.60176 
L 363.268023 344.583069 
L 363.406422 344.575335 
L 363.473341 344.571681 
L 363.506518 344.569889 
" clip-path="url(#p754d13efda)" style="fill: none; stroke: #1f77b4; stroke-width: 1.5; stroke-linecap: square"/>
   </g>
   <g id="line2d_77">
    <path d="M 225.507453 338.86545 
L 225.550203 338.866445 
L 225.592966 338.867441 
L 225.635742 338.868438 
L 225.678532 338.869437 
L 225.721334 338.870436 
L 225.772715 338.871637 
L 225.834398 338.87308 
L 225.908453 338.874815 
L 225.997373 338.876902 
L 226.104152 338.879413 
L 226.232396 338.882435 
L 226.386448 338.886076 
L 226.571539 338.890465 
L 226.793979 338.895761 
L 227.061386 338.902159 
L 227.382969 338.909898 
L 227.769874 338.919275 
L 228.235621 338.930658 
L 228.796645 338.944511 
L 229.472975 338.961418 
L 230.289105 338.982127 
L 231.275115 339.007603 
L 232.468127 339.039109 
L 233.914248 339.07833 
L 235.671203 339.127551 
L 237.811993 339.189948 
L 240.430138 339.270048 
L 243.647478 339.374517 
L 247.626331 339.513522 
L 252.5896 339.703182 
L 258.856697 339.969925 
L 266.914818 340.356476 
L 277.583547 340.908307 
L 292.497647 341.309775 
L 316.295313 335.791319 
L 339.872024 328.638701 
L 346.77769 328.790732 
L 351.632176 329.100062 
L 355.035986 329.327271 
L 357.403276 329.478287 
L 361.674989 329.730112 
L 362.949837 329.800185 
L 363.268023 329.817341 
L 363.406422 329.824763 
L 363.473341 329.828344 
L 363.506518 329.830117 
" clip-path="url(#p754d13efda)" style="fill: none; stroke: #ff7f0e; stroke-width: 1.5; stroke-linecap: square"/>
   </g>
   <g id="line2d_78">
    <path d="M 225.507453 333.8691 
L 225.550203 333.866964 
L 225.592966 333.864826 
L 225.635742 333.862685 
L 225.678532 333.860541 
L 225.721334 333.858395 
L 225.772715 333.855816 
L 225.834398 333.852716 
L 225.908453 333.848988 
L 225.997373 333.844504 
L 226.104152 333.839108 
L 226.232396 333.83261 
L 226.386448 333.82478 
L 226.571539 333.815337 
L 226.793979 333.803936 
L 227.061386 333.790155 
L 227.382969 333.773474 
L 227.769874 333.753243 
L 228.235621 333.728656 
L 228.796645 333.698695 
L 229.472975 333.662067 
L 230.289105 333.617113 
L 231.275115 333.561674 
L 232.468127 333.492898 
L 233.914248 333.406951 
L 235.671203 333.298561 
L 237.811993 333.160296 
L 240.430138 332.981351 
L 243.647478 332.745429 
L 247.626331 332.426837 
L 252.5896 331.982864 
L 258.856697 331.337962 
L 266.914818 330.349906 
L 277.583547 328.750986 
L 292.497647 326.357799 
L 316.295313 327.738482 
L 339.872024 333.472812 
L 346.77769 335.258839 
L 351.632176 336.254858 
L 355.035986 336.738831 
L 357.403276 336.968404 
L 361.674989 337.180102 
L 362.949837 337.198055 
L 363.268023 337.19959 
L 363.406422 337.199902 
L 363.473341 337.199976 
L 363.506518 337.199994 
" clip-path="url(#p754d13efda)" style="fill: none; stroke: #2ca02c; stroke-width: 1.5; stroke-linecap: square"/>
   </g>
   <g id="patch_28">
    <path d="M 218.6075 374.4 
L 218.6075 267.652174 
" style="fill: none; stroke: #000000; stroke-width: 0.8; stroke-linejoin: miter; stroke-linecap: square"/>
   </g>
   <g id="patch_29">
    <path d="M 370.406471 374.4 
L 370.406471 267.652174 
" style="fill: none; stroke: #000000; stroke-width: 0.8; stroke-linejoin: miter; stroke-linecap: square"/>
   </g>
   <g id="patch_30">
    <path d="M 218.6075 374.4 
L 370.406471 374.4 
" style="fill: none; stroke: #000000; stroke-width: 0.8; stroke-linejoin: miter; stroke-linecap: square"/>
   </g>
   <g id="patch_31">
    <path d="M 218.6075 267.652174 
L 370.406471 267.652174 
" style="fill: none; stroke: #000000; stroke-width: 0.8; stroke-linejoin: miter; stroke-linecap: square"/>
   </g>
  </g>
  <g id="legend_1">
   <g id="patch_32">
    <path d="M 71.804375 427 
L 311.235625 427 
Q 313.235625 427 313.235625 425 
L 313.235625 411.321875 
Q 313.235625 409.321875 311.235625 409.321875 
L 71.804375 409.321875 
Q 69.804375 409.321875 69.804375 411.321875 
L 69.804375 425 
Q 69.804375 427 71.804375 427 
z
" style="fill: #ffffff; opacity: 0.8; stroke: #cccccc; stroke-linejoin: miter"/>
   </g>
   <g id="line2d_79">
    <path d="M 73.804375 417.420313 
L 83.804375 417.420313 
L 93.804375 417.420313 
" style="fill: none; stroke: #1f77b4; stroke-width: 1.5; stroke-linecap: square"/>
   </g>
   <g id="text_33">
    <!-- action0 -->
    <g transform="translate(101.804375 420.920313)scale(0.1 -0.1)">
     <defs>
      <path id="DejaVuSans-63" d="M 3122 3366 
L 3122 2828 
Q 2878 2963 2633 3030 
Q 2388 3097 2138 3097 
Q 1578 3097 1268 2742 
Q 959 2388 959 1747 
Q 959 1106 1268 751 
Q 1578 397 2138 397 
Q 2388 397 2633 464 
Q 2878 531 3122 666 
L 3122 134 
Q 2881 22 2623 -34 
Q 2366 -91 2075 -91 
Q 1284 -91 818 406 
Q 353 903 353 1747 
Q 353 2603 823 3093 
Q 1294 3584 2113 3584 
Q 2378 3584 2631 3529 
Q 2884 3475 3122 3366 
z
" transform="scale(0.015625)"/>
      <path id="DejaVuSans-69" d="M 603 3500 
L 1178 3500 
L 1178 0 
L 603 0 
L 603 3500 
z
M 603 4863 
L 1178 4863 
L 1178 4134 
L 603 4134 
L 603 4863 
z
" transform="scale(0.015625)"/>
      <path id="DejaVuSans-6e" d="M 3513 2113 
L 3513 0 
L 2938 0 
L 2938 2094 
Q 2938 2591 2744 2837 
Q 2550 3084 2163 3084 
Q 1697 3084 1428 2787 
Q 1159 2491 1159 1978 
L 1159 0 
L 581 0 
L 581 3500 
L 1159 3500 
L 1159 2956 
Q 1366 3272 1645 3428 
Q 1925 3584 2291 3584 
Q 2894 3584 3203 3211 
Q 3513 2838 3513 2113 
z
" transform="scale(0.015625)"/>
     </defs>
     <use xlink:href="#DejaVuSans-61"/>
     <use xlink:href="#DejaVuSans-63" x="61.279297"/>
     <use xlink:href="#DejaVuSans-74" x="116.259766"/>
     <use xlink:href="#DejaVuSans-69" x="155.46875"/>
     <use xlink:href="#DejaVuSans-6f" x="183.251953"/>
     <use xlink:href="#DejaVuSans-6e" x="244.433594"/>
     <use xlink:href="#DejaVuSans-30" x="307.8125"/>
    </g>
   </g>
   <g id="line2d_80">
    <path d="M 158.948125 417.420313 
L 168.948125 417.420313 
L 178.948125 417.420313 
" style="fill: none; stroke: #ff7f0e; stroke-width: 1.5; stroke-linecap: square"/>
   </g>
   <g id="text_34">
    <!-- action1 -->
    <g transform="translate(186.948125 420.920313)scale(0.1 -0.1)">
     <use xlink:href="#DejaVuSans-61"/>
     <use xlink:href="#DejaVuSans-63" x="61.279297"/>
     <use xlink:href="#DejaVuSans-74" x="116.259766"/>
     <use xlink:href="#DejaVuSans-69" x="155.46875"/>
     <use xlink:href="#DejaVuSans-6f" x="183.251953"/>
     <use xlink:href="#DejaVuSans-6e" x="244.433594"/>
     <use xlink:href="#DejaVuSans-31" x="307.8125"/>
    </g>
   </g>
   <g id="line2d_81">
    <path d="M 244.091875 417.420313 
L 254.091875 417.420313 
L 264.091875 417.420313 
" style="fill: none; stroke: #2ca02c; stroke-width: 1.5; stroke-linecap: square"/>
   </g>
   <g id="text_35">
    <!-- action2 -->
    <g transform="translate(272.091875 420.920313)scale(0.1 -0.1)">
     <use xlink:href="#DejaVuSans-61"/>
     <use xlink:href="#DejaVuSans-63" x="61.279297"/>
     <use xlink:href="#DejaVuSans-74" x="116.259766"/>
     <use xlink:href="#DejaVuSans-69" x="155.46875"/>
     <use xlink:href="#DejaVuSans-6f" x="183.251953"/>
     <use xlink:href="#DejaVuSans-6e" x="244.433594"/>
     <use xlink:href="#DejaVuSans-32" x="307.8125"/>
    </g>
   </g>
  </g>
 </g>
 <defs>
  <clipPath id="p3e9b112c6e">
   <rect x="50.675" y="26.8" width="151.798971" height="106.747826"/>
  </clipPath>
  <clipPath id="p92ee223f41">
   <rect x="218.6075" y="26.8" width="151.798971" height="106.747826"/>
  </clipPath>
  <clipPath id="p6438466d89">
   <rect x="50.675" y="147.226087" width="151.798971" height="106.747826"/>
  </clipPath>
  <clipPath id="p684f751122">
   <rect x="218.6075" y="147.226087" width="151.798971" height="106.747826"/>
  </clipPath>
  <clipPath id="pcd7d446cdf">
   <rect x="50.675" y="267.652174" width="151.798971" height="106.747826"/>
  </clipPath>
  <clipPath id="p754d13efda">
   <rect x="218.6075" y="267.652174" width="151.798971" height="106.747826"/>
  </clipPath>
 </defs>
</svg>
